<?xml version="1.0" encoding="utf-8"?>
<!-- Generator: Adobe Adobe Illustrator 29.2.0, SVG Export Plug-In . SVG Version: 6.00 Build 0)  -->
<svg version="1.1" xmlns="http://www.w3.org/2000/svg" xmlns:xlink="http://www.w3.org/1999/xlink" x="0px" y="0px" width="720px"
	 height="720px" viewBox="0 0 720 720" style="enable-background:new 0 0 720 720;" xml:space="preserve">
<style type="text/css">
	.st0{clip-path:url(#SVGID_00000054988142983928859040000004836314951376196031_);fill:#766E6C;}
	.st1{clip-path:url(#SVGID_00000060726437629806786120000007556313531765470385_);}
	.st2{fill:#D4D3C8;}
	.st3{clip-path:url(#SVGID_00000060726437629806786120000007556313531765470385_);fill:#4B4341;}
	.st4{clip-path:url(#SVGID_00000060726437629806786120000007556313531765470385_);fill:#504845;}
	.st5{clip-path:url(#SVGID_00000170978539994666143610000004387619990365455232_);fill:#766E6C;}
	.st6{clip-path:url(#SVGID_00000170978539994666143610000004387619990365455232_);fill:#FFFFFF;}
	.st7{clip-path:url(#SVGID_00000099628364998143037440000011099948123732770978_);fill:#D4D3C8;}
	.st8{clip-path:url(#SVGID_00000099628364998143037440000011099948123732770978_);fill:#ECEEE2;}
	.st9{clip-path:url(#SVGID_00000099628364998143037440000011099948123732770978_);}
	.st10{fill:#F0EEE6;}
	.st11{fill:#768386;}
	.st12{fill:#919A9A;}
	.st13{fill:#C7CCC7;}
	.st14{fill:#D6D6C8;}
	.st15{fill:#FAFDF8;}
	.st16{clip-path:url(#SVGID_00000099628364998143037440000011099948123732770978_);fill:#504845;}
	.st17{clip-path:url(#SVGID_00000030460483581521989210000017749722147515286449_);}
	.st18{fill:#4B4341;}
	.st19{fill:#504845;}
	.st20{clip-path:url(#SVGID_00000099628364998143037440000011099948123732770978_);fill:#524A47;}
	.st21{clip-path:url(#SVGID_00000099628364998143037440000011099948123732770978_);fill:#766E6C;}
	.st22{fill:#AFAFAA;}
	.st23{fill:#FFFEFF;}
	.st24{fill:#FFFFFF;}
	.st25{fill:#766E6C;}
	.st26{fill:#ECEEE2;}
	.st27{fill:#524A47;}
</style>
<g id="On_Color">
	<g>
		<defs>
			<path id="SVGID_1_" d="M59.99,666.59v-614h601v614H59.99z M637.66,595.45v-2.22v-98.05H83.17v100.26H637.66z"/>
		</defs>
		<clipPath id="SVGID_00000092418580348393764030000006042506071769561482_">
			<use xlink:href="#SVGID_1_"  style="overflow:visible;"/>
		</clipPath>
		<path style="clip-path:url(#SVGID_00000092418580348393764030000006042506071769561482_);fill:#766E6C;" d="M610.24,419.16
			c-1.31-0.54-1.66-1.18-0.21-1.25C611.49,417.84,611.42,419.64,610.24,419.16 M597.96,223.66c0,0-2.31,1.29-3.14,2.96
			c-0.83,1.66,0.83,2.58,0.83,2.58L597.96,223.66z M612.6,428.44c0,0,6.79,8.31,4.85,8.86c-1.94,0.56-9-8.45-9-8.45
			s-3.6,4.29-3.6,10.53v6.78l2.91-3.6l-0.14,4.85c0,0,2.49,0.83,1.52,7.48c-0.97,6.65-2.91,7.34-2.91,7.34s1.94,2.63-0.69,7.76
			c-2.63,5.12-7.89,4.29-7.89,4.29l-0.14-3.74c0,0-0.83,0-1.66-1.66c-0.83-1.66-1.11-4.99-1.11-4.99s-3.19,1.66-3.19,7.06
			s-1.11,12.74-1.8,13.02c-0.69,0.28-3.32-1.24-4.02-0.97c-0.69,0.28-1.11,3.88-1.38,4.29c-0.28,0.42-2.35,1.52-2.91,1.66
			c-0.56,0.14-0.56,6.37-0.56,6.37s3.05,4.29,6.23-0.97c3.18-5.26,6.65-18,11.77-15.23c-2.63,6.92-7.48,16.34-11.36,24.37
			c-3.88,8.03-77,45.98-116.05,52.62c-39.05,6.65-156.03,37.11-156.03,37.11s0.92,13.11-8.31,17.36
			c-9.23,4.25-11.63,13.48-11.63,13.48s-4.06-5.17-5.36-5.17c-1.29,0-8.68,6.28-15.14,11.45c-6.46,5.17-11.26,3.69-11.26,3.69v-2.58
			c0,0-3.32-0.56-6.09-1.11c-2.77-0.56-4.43-2.4-4.43-2.4s-7.2,4.25-9.42,3.51c-2.22-0.74-13.85-10.9-7.39-13.29
			c0.55,6.65,5.36,6.83,7.39,0.37c2.03-6.46,4.43-23.08,3.32-23.45c-1.11-0.37-10.53,17.36-10.53,17.36s6.83-19.95,5.54-20.68
			c-1.29-0.74-7.2,14.58-9.04,14.96c-1.85,0.37-7.76,3.87-7.76,3.87s4.25-12.37,2.22-13.66c-2.03-1.29-4.06-1.48-4.06-1.48
			l-0.37-2.96c0,0-27.24-74.88-41.36-88.45c-14.12-13.57-9.83-15.51-9.83-15.51s0.69-4.99-0.55-4.99c-1.25,0-5.13,6.23-5.13,6.23
			l-1.94-5.82c0,0,3.87-5.26,3.87-7.34c0-2.08-0.69-6.09-0.69-6.09s-3.6,5.95-8.59,7.89c-4.99,1.94-10.38,7.34-11.21,7.89
			c-0.83,0.55-6.93,0.55-7.48,0.55c-0.55,0-0.55-1.66-0.97-1.8c-0.42-0.14-9.14-1.38-9.14-1.38l8.73-1.8c0,0-0.83-10.8-4.02-15.65
			c-3.18-4.85-4.71-4.85-4.71-4.85l-1.24-5.4c0,0-4.02,1.25-4.29-1.39c-0.28-2.63-0.28-7.48-0.28-7.48s-4.29,6.93-4.99,6.93
			c-0.69,0,2.22-13.44,2.22-13.44s5.95-13.43,5.95-21.19c0-7.76,0.28-9.7,0.28-10.66s14.82-3.74,13.29-12.88
			c-1.52-9.14,0.69-20.63,4.57-26.59c3.88-5.96,5.54-3.05,5.26-8.03c-0.28-4.99,0.97-6.51,2.35-9.83c1.38-3.32,3.88-5.4,3.88-5.4
			s5.12-14.12,4.15-14.68c-0.97-0.56-2.63-1.25-2.63-1.25s6.09-7.9,12.19-16.62c6.09-8.73,6.09-19.53,6.09-19.53
			s-13.85,17.03-15.51,17.45c-1.66,0.41-0.83-8.31,0.83-9.28c1.66-0.97,2.91-1.8,2.91-1.8s10.8-17.17,10.39-17.45
			c-0.42-0.28-15.93,19.94-18.42,21.05s-5.26,4.43-5.26,4.43l0.97-3.46c0,0,12.88-16.89,21.74-28.94
			c8.86-12.05,22.99-28.39,22.99-28.39s0.28-1.8-0.83-2.22c-1.11-0.42-18.28,23.4-20.36,24.09c-2.08,0.69-3.6,0.14-3.6,0.14
			s-2.35,6.23-5.96,8.72c-3.6,2.49-4.29,0.28-7.48,5.82c-3.19,5.54-3.88,7.06-3.88,7.06s-5.82,12.46-7.89,13.44
			c-2.08,0.97-2.35-0.28-2.91,3.18c-0.55,3.46,3.88,6.65-4.43,14.54c-8.31,7.89-12.6,6.79-12.6,6.79s-7.06,10.39-9.56,17.86
			c-2.49,7.48-6.51,3.19-6.51,3.19s-2.22,12.74-3.19,12.74s-5.12-6.65-5.12-6.65s-0.83,6.79-2.63,6.37
			c-1.8-0.42-6.65-2.35-5.95-8.03c0.69-5.68,3.18-9.56,0.97-9.28c-2.22,0.28-3.46,0.28-3.46,0.28s-3.88-3.88-4.85-4.29
			c-0.97-0.42-2.07,0-2.07,5.54c0,5.54,0.69,7.76-1.11,7.48c-1.8-0.28-1.8-34.07-1.8-34.07s1.11,0.42,1.94-1.8
			c0.83-2.22,0.97-8.17,0.97-8.17s10.66,4.71,7.62-5.12c-3.05-9.83-4.16-15.23-1.52-17.04l2.63-1.8c0,0-1.66-4.99,1.8-6.78
			c3.46-1.8,4.71-0.56,4.57-4.85c-0.14-4.29,2.77-7.48,2.77-7.48s2.63-2.63,2.63-9.56c0-6.92,1.94-11.63,8.31-18.28
			c6.37-6.65,3.88-5.82,4.43-11.63c0.55-5.82,4.43-6.65,4.43-6.65s-0.41-6.65,3.6-12.19c4.02-5.54,13.99-21.33,16.2-22.16
			c2.22-0.83,7.34,3.19,7.48-0.83c0.14-4.02-3.32-6.65-3.32-6.65s19.67-27,21.88-27.14c2.22-0.14,3.05,0.14,3.05,0.14l2.35-3.6
			l5.54,4.71l-1.52,5.26c0,0,1.8,1.25,0.28,6.37c-1.52,5.12-4.02,5.54-4.02,5.54s-4.99-4.15-5.95-4.02c-0.97,0.14,0,6.65-1.25,14.13
			c-1.25,7.48-6.78,10.11-10.25,16.76c-3.46,6.65-8.72,10.25-7.75,10.38c0.97,0.14,5.68,0.69,5.68,0.69l-15.93,22.16
			c0,0-5.95-3.88-6.78,0.28c-0.83,4.15,4.02,11.63,4.02,11.63s-4.85-3.19-5.68-1.39s1.25,5.26,1.25,5.26s-4.02,1.39-2.22,3.32
			c1.8,1.94,4.02-2.63,4.02-2.63s5.26-4.57,10.25-12.05c4.99-7.48,6.51-13.29,6.51-13.29s5.27,3.32,6.37-1.52
			c1.11-4.85,0.28-6.23,2.49-7.62c2.22-1.38,3.6-1.38,3.6-1.38l-0.28-5.95c0,0,5.54-4.02,7.9-8.31c2.35-4.29,2.35-8.73,3.74-8.59
			c1.39,0.14,0.28-0.83,1.39,0.14c1.11,0.97,3.88,3.46,3.88,3.46l11.49-13.16c0,0-1.52-3.46-2.35-3.18
			c-0.83,0.28-3.46,0.97-3.46,0.97s-0.55-1.11,0.42-1.52c0.97-0.41,1.94-1.8,2.35-1.8c0.41,0,4.98,5.54,7.75,4.99
			c2.77-0.55,6.65-2.63,6.65-2.63l-4.85-2.91c0,0,11.49-15.23,21.6-22.99c10.11-7.76,11.77-11.22,11.77-11.22s5.12,1.39,4.85-0.69
			c-0.28-2.08-1.52-3.88-1.52-3.88s31.16-30.6,32.68-30.6c1.53,0,7.06,0.55,7.06,0.55s0.69-4.85,1.39-4.15
			c0.69,0.69,4.02,0.55,4.02,0.55s0.83-3.74,2.63-3.32c1.8,0.42,2.77,3.05,3.74,3.05c0.97,0,10.25-1.39,10.8,0.55
			c0.55,1.94-6.37,18.14-6.37,18.14s8.03-4.71,10.11-0.69c2.08,4.02-2.35,11.63-1.66,13.16c0.69,1.52,1.39,1.66,1.39,1.66l3.74-4.85
			c0,0,0.14,3.74,4.71,12.6c4.57,8.86,18.14,0.41,18.14,0.41l16.9-11.77c0,0-3.74-3.46-1.11-4.57c2.63-1.11,3.88-0.55,3.88-0.55
			s0.28-4.02,3.05-6.23c2.77-2.22,4.29-2.91,6.78-5.68s3.74-4.85,4.16-4.85c0.41,0,4.29-0.69,4.29-0.69s1.8-3.88,4.57-3.88
			c2.77,0,6.37,4.29,6.37,4.29s3.32-3.6,5.13-3.19c1.8,0.42,5.12,5.54,5.12,5.54s5.82-3.05,8.59,0.14
			c2.77,3.19,0.14,12.33-1.11,12.46c-1.24,0.14-0.41,2.35,0.14,5.27c0.55,2.91-1.38,0.69,0.55,6.92c1.94,6.23,2.63,6.51,2.63,6.51
			l2.63-7.62c0,0,0.28,9.42,1.94,10.39c1.66,0.97,5.54-5.12,5.54-5.12s6.09-9.14,9.55-11.22c3.46-2.08,5.13-3.05,5.13-3.05
			s-6.51,6.23-4.43,7.34c2.07,1.11,12.74-8.31,12.74-8.31s-0.83-1.39-0.83-2.08v-3.6l3.04,1.52c0,0,9-8.45,9.7-8.59
			c0.69-0.14,2.22,2.22,2.22,2.22l9.28-4.43c0,0-3.19-2.63-1.11-3.6c2.07-0.97,6.23-0.55,6.23-0.55s8.45-6.23,25.62-11.36
			c17.17-5.12,28.94-8.03,32.13-6.65c3.19,1.38,1.39,7.06,4.02,9.14c2.63,2.08,10.39,0.97,11.77,12.88
			c1.39,11.91-5.82,23.13-5.54,26.04c0.28,2.91,5.68,0,5.68,0s-3.32,4.57-5.96,11.36c-2.63,6.79-3.18,10.53-1.24,9.97
			c1.94-0.55,4.71,1.8,5.54,1.25c0.84-0.56,2.91-7.48,2.91-7.48s1.38,6.09,2.08,6.09c0.69,0,18.83-13.02,28.94-15.37
			c10.11-2.35,12.88,1.52,12.33,8.58c3.19-1.94,3.32-6.65,3.32-6.65s1.11,1.66,3.46,6.78c2.35,5.12,4.57,4.85,4.57,4.85l0.55-4.15
			c0,0,4.29,5.26,5.4,14.68c1.11,9.42-3.6,11.36-3.6,11.36s-0.14,9.97-1.94,18.28c-1.8,8.31-8.03,14.68-8.03,14.68
			s8.45-0.28,13.29-4.15c-4.57,4.57-11.36,4.85-11.36,10.11s-0.56,18.56-0.56,18.56s14.96-12.33,15.37-13.99
			c0.41-1.66-5.54-10.8-0.28-11.22c5.26-0.41,2.22,14.27,2.22,14.27l3.05-0.69c0,0-1.11,4.85-3.6,9.97
			c-2.49,5.12-3.87,5.12-3.87,5.12s-3.6,9.69-10.53,22.02c-6.93,12.33-22.3,36.01-22.3,36.01l27.01-32.4l-26.87,38.77
			c0,0,2.22,5.4,3.88,11.22c1.66,5.82-0.42,8.31-0.42,8.31s-3.46-10.39-5.81-9.55c-2.35,0.83-3.88,4.85-3.88,4.85l1.24,4.99
			c0,0-3.6,6.51-1.52,7.06c2.08,0.56,5.82-4.85,5.82-4.85s1.24,2.49,2.63,3.05c1.38,0.56,8.86-4.15,8.86-4.15l2.22,4.15
			c0,0-12.33,4.15-11.49,5.82c0.83,1.66,5.95-0.55,5.95-0.55s0.14,10.52,4.43,11.08c4.29,0.56,11.08-2.49,11.08-2.49
			s-6.09,5.4-9.83,14.96c-3.74,9.56-8.73,15.65-3.6,16.48c5.12,0.83,11.63-7.2,11.63-7.2l11.91,0.41l2.63,4.43
			c0,0,0.42,9.28,0.56,10.11c0.14,0.83,3.19,4.43,4.43,4.02c1.25-0.42,1.94-7.2,1.94-7.2s-8.17-7.75-1.52-6.65
			c6.65,1.11,6.23,12.19,5.4,20.91c-0.83,8.73-6.92,11.08-6.92,11.08s4.29,8.31,4.98,11.91c4.3,3.32,8.45,1.11,9.28,6.51
			c0.83,5.4,0.14,7.48-0.28,8.17C614.81,428.3,612.6,428.44,612.6,428.44 M576.18,173.63c-0.83,0.69,0.42,7.34,0.83,8.03
			c0.41,0.69,3.46,0.14,4.29-0.14c0.83-0.28,0.41-7.62,0.41-7.62s2.35-0.69,4.29-4.02c1.94-3.32-0.14-10.66-0.14-10.66
			s-0.69,4.71-3.6,8.73C579.36,171.97,577.01,172.93,576.18,173.63 M590.02,235.67c-2.22-0.28-27.42,39.89-27.7,40.72
			c0,0,8.59-3.6,14.96-16.34C583.65,247.3,592.24,235.94,590.02,235.67 M94.38,341.47c0.56-0.56,0.97-2.63-1.52-2.22
			C90.37,339.67,93.11,342.74,94.38,341.47 M114.05,255.33c0,0-0.28,5.54,0.83,5.4c1.11-0.14,2.49-5.54,2.49-5.54
			S114.61,255.2,114.05,255.33 M106.99,262.81c-0.28,0.83-0.41,2.91,0,3.19c0.42,0.28,4.29-2.08,4.29-2.08s-2.35-2.91-2.77-3.19
			C108.1,260.46,107.27,261.98,106.99,262.81 M111.7,273.75c0.83-0.69-0.42-4.29-0.42-4.29s-4.57,6.23-3.88,6.51
			C108.1,276.24,110.87,274.44,111.7,273.75 M98.13,290.65c0.14,0.55-0.14,2.49-0.14,2.49s0.97,2.91,1.94,2.35
			c0.97-0.55,0.14-9.42,0.14-9.42l-3.46,2.91C96.6,288.99,97.99,290.09,98.13,290.65 M105.05,351.44
			c4.99-1.94,8.31-15.09,8.31-15.09s-4.84,0.83-11.21,5.26C95.77,346.04,100.06,353.38,105.05,351.44 M113.91,274.72
			c0.83,0.55,2.63,0,2.63,0l-0.28-6.09l2.63-0.97c2.63-0.97,0.97-5.26,0.97-5.26s-2.63,2.63-4.29,3.32
			C113.91,266.41,113.08,274.17,113.91,274.72 M122.22,314.33c1.11-0.97,0-0.55-1.25-1.11c-1.24-0.55-6.37,4.43-6.37,10.53
			c0,6.09,1.52,10.11,2.63,10.25c1.11,0.14,3.88-9.7,3.88-9.7s0.69-3.88,0.28-3.74c-0.41,0.14-3.04,3.6-3.74,3.32
			C116.96,323.61,121.11,315.3,122.22,314.33 M123.61,223.27c0.07,1.17,1.66,0.69,1.66,0.69s1.04-3.53,1.04-4.22
			c0-0.69-0.83,0.14-0.83,0.14S123.54,222.1,123.61,223.27 M127.21,298.82c1.94-0.97-1.11-3.32-2.35-0.55
			C123.61,301.03,125.44,299.7,127.21,298.82 M186.62,275.69c0.42-0.56-0.83-4.57-0.83-4.57s-1.38,1.11-2.63,2.22
			c-1.25,1.11,1.52,5.95,1.52,5.95S186.2,276.24,186.62,275.69 M147.7,291.2l-2.77-0.28c-2.77-0.28-3.46,9-3.32,9.55l2.63-0.55
			L147.7,291.2z M190.22,241.21c6.65-7.48,17.04-23.26,17.04-23.26l-14.68,3.6c0,0-10.8,10.8-12.05,13.29
			c-1.24,2.49-3.05,7.48-5.54,11.49c-2.49,4.02-5.12,9-9.69,13.85c-4.57,4.85-4.29,3.6-8.86,9.28c-4.57,5.68-9.42,13.44-8.31,13.85
			c1.11,0.42,2.77,0,2.77,0s9.28-9.97,13.3-11.77c4.01-1.8,8.86-3.6,8.86-3.6s-5.68,2.08-2.77-3.74
			C173.19,258.38,183.57,248.69,190.22,241.21 M242.22,154.58c-0.28,0.69,0.83,1.04,0.83,1.04s1.31-1.39,1.66-2.29
			c0.35-0.9-0.28-0.41-0.48-0.41S242.5,153.89,242.22,154.58 M230.17,146.14c0.07,1.17,3.19,1.38,3.19,1.38s0.28-3.88,0.14-4.92
			c-0.14-1.04-1.73-0.83-2.08-0.69C231.07,142.05,230.1,144.96,230.17,146.14 M242.08,175.57c0,0,1.38-0.35,1.24-1.59
			c-0.14-1.25-5.75-4.57-7.62-7.06c-1.87-2.49-2.01-5.54-2.01-5.54s-0.76,4.64-1.11,6.16c-0.35,1.52,0.41,1.25,2.22,2.01
			C236.61,170.3,242.08,175.57,242.08,175.57 M245.33,172.93c0.35,0-0.21-2.08-0.55-6.02c-0.34-3.95-0.14-7.55-0.14-7.55
			s-2.01,0-2.91-0.14c-0.9-0.14-1.11-2.28-1.11-2.28s-0.07,5.88-0.76,7.27c-0.69,1.38,0.07,3.12,0.07,3.12s2.63,0.69,3.25,0.97
			C243.81,168.57,244.99,172.93,245.33,172.93 M487.55,384.95c0,0-4.8,4.99-4.25,7.02c0.56,2.03,2.03,1.11,2.03,1.11L487.55,384.95z
			 M577.01,397.7c-0.41,0-6.23,5.26-4.57,6.37c1.66,1.11,5.26-3.46,5.26-3.46S577.42,397.7,577.01,397.7 M554.85,378.17
			c-0.21-0.28-1.46,2.56-1.46,4.15c0,1.59,1.11,0.9,1.11,0.9S555.06,378.45,554.85,378.17 M544.46,387.59
			c-0.62,0-0.83,0.76-0.83,0.76s0.76,2.63,1.38,2.35C545.64,390.42,545.08,387.59,544.46,387.59 M533.94,443.67
			c0,0-4.02,4.57-1.39,6.37c2.64,1.8,5.12-2.91,5.12-2.91c2.35-5.54-1.66-7.89-3.32-7.62C532.69,439.79,533.94,443.67,533.94,443.67
			 M530.48,482.31c0-1.8-0.83-1.24-0.83-1.24s-0.97,1.11-1.52,2.07c-0.55,0.97,0.97,1.66,0.97,1.66S530.48,484.11,530.48,482.31
			 M513.86,475.25c0,0,2.36-0.83,2.22-3.05c-0.14-2.21-1.11-0.55-1.52-0.55C514.13,471.65,513.44,474.14,513.86,475.25
			 M515.66,403.51c0.28,0.48,1.32,0.41,1.32,0.41s-0.07-4.36-0.14-4.57c-0.07-0.21-0.9,0.97-1.04,1.32
			C515.66,401.02,515.38,403.03,515.66,403.51 M516.26,125.34c0,0,0.93-3.14,0.93-4.06c0-0.93-2.86,2.12-3.23,3.14
			C513.58,125.43,516.26,125.34,516.26,125.34 M525.63,453.64c-2.22,0-8.31,17.73-8.17,18.14c0,0,7.2-5.68,10.53-9.97
			C531.31,457.52,527.84,453.64,525.63,453.64 M525.35,489.51c0,0,1.39,0.56,1.8-1.66c0.42-2.21-0.55-1.11-1.39-2.21
			c-0.83-1.11-1.93-0.28-1.93-0.28S523.55,488.13,525.35,489.51 M550.83,487.99c2.35-1.8-1.66-4.29-1.66-4.29s-4.85,4.85-8.31,3.6
			c-3.46-1.25,1.94-2.63,3.74-3.32c1.8-0.69,4.02-3.46,4.99-6.92c0.97-3.46-0.42-4.01-0.42-4.01s-4.29,5.54-5.68,5.26
			c-1.39-0.28-3.46-2.35-3.46-2.35s0.97,3.74,2.77,6.1c1.8,2.35-6.23,2.91-6.37,4.29c-0.14,1.39-9.7,10.94-9.7,10.94
			s3.19,0.42,3.6,0.28c0.41-0.14,6.37-5.82,6.37-5.82s0.41,0.69,1.39,1.52c0.97,0.83,0,5.12,0,5.12s2.63-1.66,5.68-6.23
			C546.82,487.57,548.48,489.79,550.83,487.99 M542.66,466.8c-0.56,0.14,0,3.74,0,3.74s1.8-2.49,1.8-3.6
			C544.46,465.83,543.22,466.66,542.66,466.8 M546.73,460.75c-1.57,0.18-0.27,2.78,1.01,2.68
			C548.94,463.34,548.29,460.57,546.73,460.75 M561.49,428.02c0,0-5.68,0.55-6.23,0.97c-0.56,0.41-0.56,3.32-0.56,3.32l-2.77,0.55
			c0,0-1.39,3.32-1.52,5.13c-0.14,1.8-9.42,7.48-9.42,7.48l5.4,1.25L561.49,428.02z M561.49,421.24c0.69,0.14,4.29-2.77,4.29-2.77
			s-3.74-0.41-5.4,2.08C558.73,423.04,560.8,421.1,561.49,421.24 M570.22,372.49c-0.76-0.76-1.38,0.14-1.38,0.14l2.42,2.7
			C571.26,375.33,570.98,373.25,570.22,372.49 M575.62,491.31c0.83-1.11,0-1.11,0-1.94s-1.25,0.14-3.46,0.69
			c-2.22,0.55,0.14,2.21,0.14,2.63C572.3,492.7,574.79,492.42,575.62,491.31 M577.56,475.39c1.11-3.32,0-1.39,0-1.39
			s-1.52,0.42-2.49,0.83c-0.97,0.41-1.11,2.21-0.97,5.12C574.1,479.95,576.45,478.71,577.56,475.39 M577.97,408.64
			c0.97-1.94-0.97-1.94-0.97-1.94s-2.21,1.66-4.02,3.74c-1.8,2.07,0.42,1.38,0.42,1.38S577.01,410.58,577.97,408.64 M584.9,462.78
			c1.52-0.14,0.56-0.28,0.83-1.94c0.28-1.66-0.42-1.11-1.94-2.49c-1.52-1.39-2.08,1.38-2.08,1.38S583.38,462.92,584.9,462.78
			 M598.47,462.51c0,0,2.08-2.91,0-2.91S597.22,462.78,598.47,462.51 M600.55,454.2c0,0,1.8-2.49-1.24-2.35
			C596.25,451.98,598.06,453.78,600.55,454.2 M604.98,452.95c0,0-2.77,2.91-2.49,3.74c0.28,0.83,2.91,0.97,2.91,0.97L604.98,452.95
			 M592.7,212.96c0,0-3.14,0.28-3.69,1.39c-0.55,1.11,0.46,1.11,2.13,0.55C592.79,214.34,592.7,212.96,592.7,212.96 M598.42,240.1
			c0,0-2.49,5.36-2.21,6.09c0.28,0.74,1.94,0.19,1.94,0.19L598.42,240.1z M533.25,131.62c0,0,2.58-8.77,2.58-9.6
			c0-0.83-0.92-0.28-0.92-0.28s-3.42,8.12-3.51,9.51C531.31,132.64,533.25,131.62,533.25,131.62 M303.78,113.94
			c1.45-0.42-0.9-11.7-0.9-11.7s-1.87,10.04-0.97,11.36C302.81,114.91,303.78,113.94,303.78,113.94 M157.95,315.99
			c0,0-0.69-0.28-3.87,0c-3.19,0.28-1.11,6.09-1.11,6.09L157.95,315.99z M145.63,330.95c0,0,4.15-6.65,3.74-6.37
			c-0.41,0.28-2.35,1.11-3.46,1.52C144.79,326.51,145.63,330.95,145.63,330.95 M147.43,344.93c0,0,3.46-1.52,5.68-4.71
			c2.21-3.19,1.38-8.86,1.38-8.86L147.43,344.93z M143.13,337.18c0,0,1.11-4.43,0.69-4.43s-2.35,1.8-2.77,4.02
			C140.64,338.98,143.13,337.18,143.13,337.18 M92.86,371.94c2.08-0.28,1.94-6.23,0-9C88.43,371.38,92.86,371.94,92.86,371.94
			 M119.73,463.98c0,0,1.48-0.74,3.51-2.22c2.03-1.48-1.76-6.46-1.76-6.46L119.73,463.98z M175.26,141.22c0,0,7.2,9.14,8.86,9
			c1.66-0.14,2.35-7.06,2.35-7.06s-5.12-0.28-6.65-0.69c-1.52-0.42-3.19-4.29-3.19-4.29L175.26,141.22z M199.08,160.89
			c0,0,1.94-3.19,1.8-5.95c-0.14-2.77-0.28-1.11-0.55-1.52c-0.28-0.41-2.08-0.28-2.08-0.28s-0.41,3.46-0.14,4.43
			C198.39,158.53,199.08,160.89,199.08,160.89 M143.55,156.18c0,0-1.11,5.12-1.94,5.68c-0.83,0.56-2.77,0.56-2.77,0.56
			s-1.94,1.52-2.63,2.35c-0.69,0.83,0,3.05,1.52,3.05c1.52,0,11.63-11.08,11.63-11.08l4.02-11.22c0,0,1.39,6.09,0.97,6.09
			c-0.42,0-4.15,2.49-4.15,1.11L143.55,156.18z M202.96,151.19c0,0,1.52-1.52,1.52-3.05c0-1.52-0.97-2.49-0.97-2.49
			s-1.94,1.66-2.35,2.91C200.74,149.81,202.96,151.19,202.96,151.19 M189.25,146.07c0,0,2.77,0.69,4.02-1.94
			c1.25-2.63,1.11-5.95,1.11-5.95s4.85,3.19,7.2-3.19c2.35-6.37,0.41-9.7,0.41-9.7s8.59-13.99,10.11-16.34
			c1.52-2.35,3.05-10.25,3.05-10.25s2.49,3.46,3.32,3.6c0.83,0.14-1.38-13.43-1.38-13.43s-11.63,9.28-14.12,12.33
			c-2.49,3.05-3.46,14.54-3.46,14.54s-1.25,1.11-1.25,1.66v3.46c0,2.35-0.69,5.26-2.91,4.29c-2.22-0.97-3.32-9-3.32-9
			s-2.07,3.6-4.98,7.75c-2.91,4.16,0,10.8,0,10.8l-2.63-0.55c-2.63-0.56-1.8-3.74-3.05-3.32c-1.25,0.41-1.25,2.63-0.83,4.99
			c0.42,2.35,7.2,4.57,7.76,5.4C188.83,142.05,188.42,145.65,189.25,146.07 M611.81,441.83c0,0-0.83,4.89-0.55,6.09
			c0.28,1.2,2.95,2.68,2.95,2.68L611.81,441.83z M610.89,398.71c0,0-3.69,5.72-3.6,6.74c0.09,1.01,2.95,0.92,2.95,0.92
			L610.89,398.71z M228.49,610.78c0,0-3.14,8.68-2.86,9.51c0.28,0.83,2.86-0.18,2.86-0.18l-1.29-1.2l3.32-7.94
			C230.52,610.96,228.76,610.78,228.49,610.78 M214.73,595.54c0,0,3.51,0,3.88,0.37c0.37,0.37-0.64,3.23-0.74,4.71
			c-0.09,1.48,1.02,1.57,1.94,1.57c0.92,0,0.09-7.66,0.09-7.94c0-0.28-3.88-0.28-4.43-0.28
			C214.91,593.98,214.73,595.54,214.73,595.54 M280.84,633.12c0,0,2.86-2.03,3.6-2.59c0.74-0.56-0.37-0.83-0.65-1.66
			c-0.28-0.83-2.4,0.28-3.04,0.65C280.1,629.89,280.74,632.84,280.84,633.12 M288.59,630.54c0,0,2.86-1.11,3.32-1.94
			c0.46-0.83-0.46-1.2-0.46-1.2s-1.84,0.28-2.58,0.46C288.13,628.04,288.59,630.54,288.59,630.54"/>
	</g>
	<g id="Falcon_Face_-_Below_Chain">
		<g>
			<defs>
				<path id="SVGID_00000084529392290351104140000016330350731573847217_" d="M59.99,666.59v-614h601v614H59.99z M637.66,595.45
					v-2.22v-98.05H83.17v100.26H637.66z"/>
			</defs>
			<clipPath id="SVGID_00000028327492701940219230000001686115389747384983_">
				<use xlink:href="#SVGID_00000084529392290351104140000016330350731573847217_"  style="overflow:visible;"/>
			</clipPath>
			
				<g id="Off_White_3_00000028312358857421423400000006437346651173979555_" style="clip-path:url(#SVGID_00000028327492701940219230000001686115389747384983_);">
				<path class="st2" d="M423.84,234.1c17-12.41,57.96-43.77,64.34-48.66c-0.97-1.42-1.76-2.89-2.02-4.16
					c-1.47,1.13-4.22,3.27-9.42,7.3c-11.08,8.59-49.3,35.73-62.87,46.81c-8.96,7.32-17.08,7.75-21.56,7.19
					c1.39,1.28,2.99,2.5,4.9,3.55C402.04,245.54,411.44,243.15,423.84,234.1"/>
				<path class="st2" d="M338.54,239.64c3.45-2.89,7.02-3.84,9.33-4.13c3.13-1.85,6.12-3.31,6.74-3.62
					c0.22-0.11,0.72-0.67,1.38-1.51c-2.53-0.21-7.89-0.08-14.49,3.36c-9.23,4.8-13.29,2.58-18.09,0.37
					c-4.8-2.22-81.06-58.35-81.06-58.35l37.47,30.37c12.37,9.53,35.98,27.79,39.9,31.3C325.06,242.22,332.81,244.44,338.54,239.64"
					/>
				<path class="st2" d="M507.36,170.08l-3.48,2.16l23.82-25.2l-36.86,31.25c2.01,0.03,4.37,0.35,6.53,0.79L507.36,170.08z"/>
				<g id="Off_White_3_00000087386933164230849570000008917632969495259555_">
					<path class="st2" d="M284.62,288.02c0,0,1.93-0.19,3.35-0.23l0.35-0.14l-8.35,0.2c-1.62,0.6-2.64,0.86-2.64,0.86
						s1.02-0.26,2.64-0.86l-14.92,0.35c0,0,3.01-0.81,7.03-2.04l-28.82-0.18l33.79,4.8l-1.82,2.17l12.74-5.17
						C286.55,287.82,284.62,288.02,284.62,288.02"/>
					<path class="st2" d="M258.21,307.66L244,313.13c0,0,29.91-8.49,30.28-7.2c0.37,1.29-9.97,7.57-9.97,7.57
						s21.24-11.27,20.68-12.56c-0.34-0.8-4.39-0.05-7.45,0.64l-22.83,7.67L258.21,307.66z"/>
				</g>
			</g>
			<path style="clip-path:url(#SVGID_00000028327492701940219230000001686115389747384983_);" d="M480.9,248.32
				c13.48-9.42,9.79-19.94,9.79-19.94s4.24,2.59,5.17,6.09c0.92-6.65-0.19-14.96-0.19-14.96s9.78-0.55,11.63-9.42
				c1.84-8.86,7.39-11.26,12.55-14.59c5.17-3.32,11.27-6.28,11.27-6.28s-18.65,4.25-20.13,0.92c-1.48-3.32,21.79-17.91,21.79-17.91
				s-26.03,9.79-29.91,8.31c-1.21-0.46-3.25-1.03-5.5-1.48l-0.41,0.37l0.41-0.37c-2.17-0.43-4.53-0.76-6.53-0.78l-1.36,1.15
				l1.36-1.15c-2.62-0.04-4.63,0.45-4.77,1.89c-0.03,0.34,0.01,0.71,0.1,1.1l1.66-1.29l-1.66,1.29c0.26,1.27,1.05,2.74,2.02,4.16
				c0.55-0.42,0.84-0.65,0.84-0.65s-0.3,0.23-0.84,0.65c1.95,2.86,4.53,5.45,4.53,5.45l-9.97,2.77l6.09,1.11
				c0,0-11.53,9.22-12.5,9.58c0.65-0.07,4.56-0.35,4.56-0.35s-16.8,13.29-29.73,14.22l8.49,2.95c0,0-13.66,9.23-27.51,10.71
				l1.66,5.36c0,0-15.7,13.66-28.43,11.63c-3.22-0.51-5.9-1.5-8.17-2.74c-2.37,0.29-3.65,0.15-3.65,0.15s1.28,0.14,3.65-0.15
				c-1.91-1.04-3.51-2.26-4.9-3.55c-2.3-0.28-3.64-0.83-3.64-0.83s1.34,0.54,3.64,0.83c-3.5-3.22-5.56-6.79-7.24-8.67
				c-3.14-3.51-7.94-2.77-7.94-2.77L369,203.26l-0.92,10.52l-2.03-4.43l-0.37,4.99c0,0-9.79,0.37-15.51,9.97
				c7.94-7.94,13.85-5.17,13.85-5.17s-5.35,7.85-8.04,11.23c1.01,0.08,1.57,0.22,1.57,0.22s-0.57-0.13-1.57-0.22
				c-0.66,0.83-1.16,1.4-1.38,1.51c-0.62,0.31-3.61,1.78-6.74,3.62c1.52-0.2,2.49-0.11,2.49-0.11s-0.97-0.08-2.49,0.11
				c-2.47,1.45-5.01,3.14-6.56,4.69c-3.51,3.51-10.34,7.94-13.29,6.83s-24.93-15.14-24.93-15.14s-1.66-6.83-5.54-7.02
				c-3.88-0.19-17.36-0.92-17.36-0.92l10.16-4.8c0,0-25.85,0.74-18.65-7.94c-9.05,0.55-12.74,0.74-12.74-2.4
				c0-3.14,12.01-5.17,12.01-5.17s-12.93-1.48-17.54-4.43c-4.61-2.95-6.1-7.57-9.6-6.65c-3.51,0.92-5.54,2.22-7.94,0.74
				c-2.4-1.48-8.49-5.91-8.49-5.91l3.69,6.09l-13.48-11.08l24,31.76l-16.62-13.85l5.72,8.68l-28.62-22.9l30.83,30.84l-24-17.73
				c0,0,20.5,26.59,39.7,42.28c19.2,15.69,39.88,24.37,56.32,14.59c16.43-9.79,21.6-5.17,26.78-2.22
				c4.24-6.65,16.8-17.17,24.19-17.17c6.83-6.16,17.39-5.84,23.05,0.9c4.82,1.93,8.51,5.16,11.43,9.07
				c3.66,3.53,10.36,9.27,15.92,10.16c8.13,1.29,18.65,0.18,18.47,2.77c-0.19,2.58-3.32,4.99-2.77,9.05
				c0.56,4.06,2.95,7.02,2.95,7.02l-5.36,1.11l7.94,6.65c0,0-3.51,6.65,3.14,13.85c-6.65-7.2-3.14-13.85-3.14-13.85l-7.94-6.65
				l5.36-1.11c0,0-2.4-2.95-2.95-7.02c-0.56-4.06,2.58-6.46,2.77-9.05c0.18-2.59-10.34-1.48-18.47-2.77
				c-5.57-0.89-12.26-6.63-15.92-10.16c3.83,5.14,6.3,11.46,8.17,17.54c4.04,13.13,5.47,23.66,7.37,34.51
				c0.82,1.11,1.56,2.42,2.13,3.99c-0.57-1.56-1.31-2.88-2.13-3.99c0.19,1.05,0.37,2.1,0.57,3.16c2.22,12,2.4,21.05,2.4,21.05
				l1.01-7.19l0.1-3.06l-0.1,3.06l3.42-24.38l16.25,12l-9.41-12.55l9.79,6.09c0,0,2.77,1.52,7.06,3.05
				c3.74,1.32,10.08,4.11,10.76,5.82l9.51,2.58l-5.91,4.43c0,0,18.28-4.99,21.78-3.69c-10.34,4.25-14.4,7.76-14.4,7.76
				s17.91-4.8,21.24-1.48c-7.2,0.74-8.49,8.31-8.49,8.31l2.59-2.03l1.85,2.95c0,0,2.77-6.83,7.02-6.28
				c4.25,0.56,9.41-1.29,8.31-4.06c5.73-1.66,20.31-0.19,20.31-0.19s-11.45-3.88-21.24-3.14c-8.28,0.62-12.72-3.11-13.89-4.27
				c-1.07,0.8-1.25,1.5-1.25,1.5s0.18-0.7,1.25-1.5c-0.21-0.21-0.33-0.35-0.33-0.35s-22.35-1.11-26.22-2.58
				c-3.88-1.48-21.61-14.59-21.42-16.25c0.19-1.66,7.02-1.29,7.02-1.29s-9.05-5.91-9.6-6.46c-0.55-0.55,6.83-1.48,6.83-1.48
				s-3.51-2.77-3.32-4.62c0.03-0.32,1.25-0.48,3.2-0.54c-0.86-0.77-1.17-1.31-1.17-1.31s0.31,0.53,1.17,1.31
				c3.35-0.09,8.91,0.15,14.65,0.49c-0.91-0.2-1.42-0.32-1.42-0.32s0.51,0.12,1.42,0.32c10.11,0.6,20.74,1.52,20.74,1.52
				s-6.12-1.12-12.74-2.56c-1.3-0.02-2.03-0.03-2.03-0.03s0.73,0.02,2.03,0.03c-5.12-1.11-10.53-2.41-13.67-3.54
				c-7.2-2.59-5.17-11.63,2.4-9.79c7.57,1.85,16.25,5.36,16.25,5.36l-0.05-0.08c-2.76-1.81-5.49-3.61-5.49-3.61s2.73,1.8,5.49,3.61
				l-3.83-5.65c0,0,11.82,6.46,21.05,2.58c-10.9,0-15.33-3.69-15.33-3.69s1.26-1.37,3.46-2.43c-0.16-0.27-0.27-0.57-0.32-0.89
				c0.05,0.32,0.16,0.62,0.32,0.89c1.75-0.84,4.1-1.49,6.88-1.08c3.69,0.54,9.18,0.69,14.75-0.21c-0.32-0.04-0.62-0.08-0.9-0.16
				c0.28,0.08,0.59,0.12,0.9,0.16c3.9-0.63,7.86-1.77,11.28-3.67c-1.15,0.11-2.21,0.25-3.17,0.39c-1.38,0.69-2.19,1.09-2.19,1.09
				s0.81-0.4,2.19-1.09c-3.82,0.57-6.06,1.27-6.06,1.27l5.36-11.26C494.56,240.75,482.01,248.32,480.9,248.32"/>
			<path style="clip-path:url(#SVGID_00000028327492701940219230000001686115389747384983_);fill:#4B4341;" d="M397.21,246.13
				c2.27,1.24,4.95,2.22,8.17,2.74c12.74,2.03,28.43-11.63,28.43-11.63l-1.66-5.36c13.85-1.48,27.51-10.71,27.51-10.71l-8.5-2.95
				C464.1,217.3,480.9,204,480.9,204s-3.91,0.28-4.56,0.35c-0.02,0.01-0.04,0.02-0.05,0.02c-0.07,0-0.05-0.01,0.05-0.02
				c0.97-0.36,12.5-9.59,12.5-9.59l-6.09-1.11l9.97-2.77c0,0-2.58-2.59-4.53-5.45c-6.38,4.88-47.34,36.24-64.34,48.66
				C411.44,243.15,402.04,245.54,397.21,246.13"/>
			<path style="clip-path:url(#SVGID_00000028327492701940219230000001686115389747384983_);fill:#504845;" d="M545.9,205.29
				l-5.54,2.03l-16.06,6.28l12.19-11.63l1.66-0.08l9.6-5.83l-11.45,3.32c-0.14-0.13-0.29-0.25-0.42-0.38l-11.39,4.62l3.51-4.25
				c-8.31,2.77-11.27,10.52-21.6,27.88c-0.37-11.63,10.34-23.08,10.34-23.08l-3.87,2.03c4.48-7.17,12.1-11.92,14.85-13.48
				c-0.51-0.35-0.82-0.56-0.82-0.56l24.65-10.8l-21.6,4.15l7.2-7.2c0,0-11.63,4.43-13.29,3.32c-1.66-1.11,33.51-25.76,33.51-25.76
				l-22.43,8.58l4.99-6.65c0,0-32.13,21.05-32.96,21.05c-0.83,0,23.27-22.99,23.27-22.99l-22.84,14.18l-9.99,8.99
				c2.25,0.45,4.3,1.02,5.5,1.48c3.87,1.48,29.91-8.31,29.91-8.31s-23.26,14.59-21.79,17.91c1.48,3.32,20.13-0.93,20.13-0.93
				s-6.1,2.96-11.27,6.28c-5.17,3.32-10.71,5.73-12.55,14.59c-1.85,8.86-11.63,9.41-11.63,9.41s1.11,8.31,0.19,14.96
				c-0.92-3.51-5.17-6.09-5.17-6.09s3.69,10.52-9.79,19.94c1.11,0,13.66-7.57,13.66-7.57l-5.36,11.26c0,0,10.16-7.38,25.11-19.57
				c2.78-2.26,5.87-4.53,9.08-6.72l-3.54,0.26l3.54-0.26c4.89-3.34,10.03-6.52,14.66-9.23l-0.29-1.96l0.29,1.96
				c0.43-0.25,0.84-0.49,1.26-0.74l-1.18-3.81L545.9,205.29z"/>
			<path style="clip-path:url(#SVGID_00000028327492701940219230000001686115389747384983_);" d="M522.26,220.25l-11.63,9.42
				c0,0,3.14-16.06,14.22-19.39c-9.78,7.02-9.97,11.82-9.97,11.82L522.26,220.25z"/>
		</g>
	</g>
	<g id="Chain">
		<g>
			<defs>
				<path id="SVGID_00000142898464676808219390000009566710528707496106_" d="M59.99,666.59v-614h601v614H59.99z M637.66,595.45
					v-2.22v-98.05H83.17v100.26H637.66z"/>
			</defs>
			<clipPath id="SVGID_00000168817122099245548780000002656443332931841723_">
				<use xlink:href="#SVGID_00000142898464676808219390000009566710528707496106_"  style="overflow:visible;"/>
			</clipPath>
			<path id="Links_Outline" style="clip-path:url(#SVGID_00000168817122099245548780000002656443332931841723_);fill:#766E6C;" d="
				M380.77,125.08c-5.76,0-10.86,2.83-13.99,7.17l-0.04,0.02c-3.22,1.62-5.83,2.14-7.9,2.14c-1.97,0-3.45-0.48-4.49-0.96
				c-0.93-0.44-1.39-0.82-1.79-1.06c-3.15-4.05-8.07-6.68-13.61-6.68c-9.52,0-17.24,7.72-17.25,17.25
				c0.01,9.52,7.73,17.24,17.25,17.25c6.25,0,11.72-3.33,14.74-8.3l0.13-0.07c2.37-1.24,4.53-1.65,6.37-1.65
				c1.78,0,3.28,0.38,4.37,0.78c0.89,0.32,1.4,0.6,1.77,0.78c3.08,4.7,8.39,7.83,14.44,7.83c9.53,0,17.24-7.72,17.25-17.25
				C398.02,132.8,390.3,125.08,380.77,125.08z M374.98,142.33c0.01-3.2,2.59-5.78,5.79-5.79c3.2,0,5.78,2.59,5.79,5.79
				c-0.01,3.2-2.59,5.78-5.79,5.79C377.57,148.11,374.99,145.53,374.98,142.33z M333.16,142.95c0.01-3.2,2.59-5.78,5.79-5.79
				c3.2,0.01,5.78,2.59,5.79,5.79c-0.01,3.2-2.6,5.78-5.79,5.79C335.75,148.74,333.17,146.15,333.16,142.95z M412.7,164.62
				c2.14,0.88,4.35,1.29,6.53,1.29c3.7,0,7.3-1.2,10.25-3.38l0.15-0.02c0.51-0.05,1-0.07,1.47-0.07c3.39,0,5.84,1.14,7.52,2.32
				c0.84,0.59,1.48,1.19,1.93,1.66c0.34,0.35,0.52,0.58,0.69,0.77c1.06,5.52,4.79,10.42,10.38,12.71c2.14,0.88,4.36,1.29,6.54,1.29
				h0.01c6.79,0,13.22-4.04,15.96-10.71c0.87-2.14,1.29-4.36,1.29-6.54c0-6.79-4.04-13.23-10.71-15.96
				c-2.14-0.88-4.35-1.29-6.53-1.29c-3.25,0-6.42,0.92-9.13,2.62l-0.04,0c-0.68,0.05-1.32,0.08-1.93,0.08
				c-4.41,0-7.09-1.27-8.75-2.56c-0.83-0.64-1.41-1.3-1.8-1.82c-0.34-0.44-0.49-0.72-0.68-0.98c-1.38-4.95-4.94-9.24-10.06-11.34
				c-2.14-0.87-4.36-1.29-6.54-1.29c-6.79,0-13.23,4.04-15.96,10.71c-0.88,2.14-1.3,4.35-1.3,6.53
				C401.98,155.45,406.03,161.89,412.7,164.62z M413.45,148.66c0-0.73,0.14-1.47,0.43-2.19c0.92-2.24,3.07-3.6,5.36-3.6
				c0.73,0,1.47,0.14,2.19,0.43c2.24,0.92,3.59,3.08,3.59,5.36c0,0.73-0.14,1.47-0.43,2.19c-0.92,2.24-3.07,3.59-5.36,3.59
				c-0.73,0-1.47-0.14-2.19-0.43C414.8,153.1,413.45,150.94,413.45,148.66z M458.17,158.16c0.73,0,1.48,0.14,2.19,0.43
				c2.24,0.92,3.6,3.08,3.6,5.36c0,0.73-0.14,1.48-0.43,2.2c-0.92,2.24-3.08,3.59-5.36,3.59c-0.73,0-1.47-0.14-2.19-0.43
				c-2.24-0.92-3.59-3.08-3.59-5.36c0-0.73,0.14-1.48,0.43-2.19C453.74,159.51,455.9,158.16,458.17,158.16z M171.64,489.47
				c-0.21,0-0.42,0-0.63,0.01l-0.13-0.07c-3.44-1.91-5.12-4.42-6-6.52c-0.43-1.06-0.67-2.01-0.79-2.73
				c-0.1-0.55-0.13-0.88-0.17-1.16c0.95-2.18,1.44-4.53,1.44-6.91c0-3.25-0.92-6.54-2.84-9.45c-3.31-5.03-8.81-7.76-14.42-7.76
				c-3.26,0-6.56,0.92-9.47,2.85c-5.03,3.32-7.76,8.81-7.76,14.42c0,3.25,0.92,6.55,2.85,9.47c3.17,4.81,8.33,7.51,13.68,7.74
				l0.04,0.03c7.65,4.43,7.87,9.34,7.9,11.17c0,0.2-0.01,0.36-0.01,0.51c0,0.04,0,0.07,0,0.11c-0.61,1.79-0.92,3.68-0.92,5.58
				c0,3.24,0.92,6.53,2.84,9.45c3.31,5.03,8.81,7.76,14.42,7.75c3.25,0,6.55-0.92,9.48-2.84c5.02-3.31,7.76-8.82,7.76-14.42
				c0-3.26-0.92-6.55-2.85-9.47C182.74,492.2,177.25,489.47,171.64,489.47z M177.44,506.71c0,1.88-0.92,3.73-2.6,4.84
				c-0.98,0.65-2.08,0.95-3.18,0.95c-1.88,0-3.73-0.92-4.84-2.6c-0.65-0.98-0.96-2.09-0.96-3.18c0-1.88,0.92-3.73,2.61-4.84
				c0.98-0.65,2.09-0.96,3.18-0.96c1.88,0,3.72,0.92,4.84,2.6C177.13,504.51,177.44,505.61,177.44,506.71z M148.12,477.92
				c-1.88,0-3.73-0.92-4.84-2.6c-0.65-0.98-0.96-2.09-0.96-3.18c0-1.89,0.91-3.73,2.6-4.84c0.98-0.65,2.09-0.96,3.18-0.96
				c1.88,0,3.72,0.92,4.84,2.61c0.65,0.98,0.96,2.08,0.96,3.18c0,1.88-0.92,3.72-2.61,4.84
				C150.32,477.61,149.22,477.92,148.12,477.92z M153.55,468.55L153.55,468.55L153.55,468.55L153.55,468.55z M138.67,451.51
				c8.45-1.39,14.46-8.71,14.46-17.01c0-0.93-0.08-1.86-0.23-2.8c-1.01-6.17-5.18-11.02-10.57-13.2l-0.1-0.12
				c-2.24-2.98-2.82-5.82-2.82-8.06c0-1.23,0.18-2.28,0.36-3.05c0.14-0.6,0.27-0.95,0.35-1.23c3.49-3.2,5.62-7.78,5.62-12.71
				c0-0.93-0.07-1.86-0.22-2.79c-1.39-8.46-8.7-14.46-17-14.46c-0.93,0-1.87,0.07-2.82,0.23c-8.45,1.39-14.46,8.7-14.46,17
				c0,0.92,0.08,1.86,0.23,2.81c0.93,5.68,4.55,10.26,9.33,12.65l0.03,0.03c2.81,3.86,3.54,6.98,3.54,9.29
				c0,1.38-0.27,2.48-0.55,3.28c-0.24,0.7-0.45,1.06-0.59,1.41c-2.89,3.12-4.62,7.27-4.62,11.71c0,0.92,0.07,1.85,0.23,2.8
				c1.39,8.45,8.7,14.46,17,14.46C136.79,451.74,137.72,451.66,138.67,451.51z M134.29,393.33c0,2.78-2.02,5.24-4.85,5.7
				c-0.32,0.05-0.63,0.07-0.95,0.07c-2.78,0-5.24-2.02-5.7-4.85c-0.05-0.32-0.08-0.64-0.08-0.94c0-2.78,2.02-5.24,4.85-5.7
				c0.32-0.05,0.64-0.08,0.94-0.08c2.78,0,5.24,2.01,5.71,4.85C134.27,392.7,134.29,393.02,134.29,393.33z M134.93,392.27
				L134.93,392.27L134.93,392.27L134.93,392.27z M141.67,434.5c0,2.78-2.02,5.24-4.85,5.71c-0.32,0.05-0.63,0.07-0.95,0.07
				c-2.78,0-5.24-2.02-5.7-4.85c-0.05-0.32-0.07-0.63-0.07-0.94c0-2.78,2.01-5.24,4.85-5.71c0.32-0.05,0.63-0.08,0.94-0.08
				c2.78,0,5.24,2.02,5.71,4.85C141.64,433.87,141.67,434.19,141.67,434.5z M126.02,371.3c1.1,0.21,2.2,0.31,3.28,0.31
				c8.1,0,15.33-5.74,16.92-13.99c0.21-1.1,0.31-2.2,0.31-3.28c0-4.94-2.14-9.56-5.67-12.76l-0.05-0.15
				c-0.46-1.52-0.64-2.91-0.64-4.17c0-2.49,0.71-4.46,1.44-5.87c0.37-0.7,0.73-1.26,1.03-1.67c0.2-0.29,0.34-0.45,0.46-0.6
				c5.2-2.13,9.27-6.75,10.41-12.69c0.21-1.1,0.31-2.2,0.31-3.28c0-8.1-5.74-15.33-13.99-16.92c-1.1-0.21-2.2-0.32-3.28-0.32
				c-8.1,0-15.32,5.74-16.91,13.99c-0.21,1.1-0.32,2.2-0.32,3.28c0,4.47,1.75,8.68,4.7,11.82l0.01,0.04c0.61,2.15,0.85,4,0.85,5.57
				c0,2.91-0.8,4.89-1.63,6.22c-0.41,0.66-0.83,1.16-1.16,1.52c-0.27,0.3-0.46,0.45-0.62,0.64c-4.57,2.33-8.08,6.67-9.13,12.1
				c-0.21,1.1-0.31,2.2-0.31,3.28C112.03,362.48,117.76,369.71,126.02,371.3z M130.79,313.19c0-0.37,0.03-0.74,0.11-1.1
				c0.53-2.77,2.96-4.7,5.68-4.7c0.37,0,0.73,0.04,1.1,0.11c2.77,0.53,4.69,2.96,4.69,5.68c0,0.36-0.04,0.73-0.11,1.1
				c-0.53,2.77-2.96,4.69-5.67,4.69c-0.37,0-0.73-0.03-1.11-0.11C132.71,318.33,130.79,315.9,130.79,313.19z M134.96,355.45
				c-0.53,2.77-2.96,4.7-5.68,4.7c-0.36,0-0.73-0.03-1.1-0.1c-2.77-0.53-4.7-2.96-4.7-5.68c0-0.36,0.04-0.73,0.11-1.1
				c0.53-2.77,2.96-4.7,5.68-4.7c0.36,0,0.73,0.04,1.1,0.11c2.77,0.53,4.69,2.96,4.69,5.68
				C135.07,354.71,135.03,355.08,134.96,355.45z M135.67,355.59L135.67,355.59L135.67,355.59
				C135.67,355.59,135.67,355.59,135.67,355.59z M140.27,291.17c2.8,1.71,5.91,2.53,8.97,2.53c5.81,0,11.48-2.94,14.74-8.26
				c1.71-2.8,2.52-5.91,2.52-8.96c0-2.76-0.66-5.49-1.93-7.94l0.01-0.15c0.26-3.92,1.81-6.51,3.35-8.21
				c0.77-0.85,1.53-1.46,2.12-1.88c0.46-0.33,0.74-0.49,0.98-0.64c5.62-0.17,11.05-3.08,14.2-8.24c1.71-2.8,2.53-5.91,2.53-8.97
				c0-5.81-2.94-11.49-8.26-14.73c-2.8-1.71-5.91-2.53-8.97-2.53c-5.81,0-11.48,2.94-14.73,8.26c-1.71,2.8-2.53,5.91-2.53,8.97
				c0,2.31,0.47,4.59,1.35,6.71l0,0.04c-0.43,5.23-2.17,8.15-3.82,9.84c-0.83,0.84-1.64,1.38-2.28,1.74
				c-0.55,0.31-0.89,0.42-1.19,0.58c-5.1,0.58-9.9,3.41-12.79,8.13c-1.71,2.81-2.53,5.91-2.53,8.98
				C132,282.24,134.94,287.91,140.27,291.17z M154.2,279.46c-1.1,1.79-3,2.77-4.95,2.77c-1.03,0-2.07-0.27-3.01-0.85
				c-1.79-1.09-2.77-2.99-2.77-4.95c0-1.03,0.27-2.07,0.85-3.01c1.09-1.78,3-2.77,4.95-2.77c1.03,0,2.07,0.27,3.01,0.85
				c1.79,1.1,2.77,3,2.77,4.95C155.04,277.48,154.77,278.51,154.2,279.46L154.2,279.46z M175.46,243.44L175.46,243.44
				c-1.09,1.79-2.99,2.77-4.95,2.77c-1.03,0-2.06-0.28-3.01-0.85c-1.79-1.09-2.77-2.99-2.77-4.94c0-1.03,0.27-2.07,0.85-3.01
				c1.09-1.79,2.99-2.77,4.95-2.77c1.03,0,2.07,0.27,3.01,0.85c1.79,1.09,2.77,2.99,2.77,4.95
				C176.31,241.46,176.03,242.49,175.46,243.44z M176.07,243.81L176.07,243.81L176.07,243.81L176.07,243.81z M238.81,172.7
				c-3.41-3.9-8.19-5.89-12.99-5.89c-4.03,0-8.08,1.4-11.35,4.27c-3.89,3.41-5.89,8.19-5.89,12.99c0,0.54,0.03,1.08,0.08,1.62
				l-0.02,0.04c-1.98,4.86-4.51,7.13-6.59,8.25c-1.04,0.56-1.98,0.83-2.69,0.98c-0.62,0.13-0.97,0.14-1.31,0.2
				c-1.1-0.21-2.2-0.32-3.31-0.32c-4.02,0-8.07,1.39-11.33,4.25c-3.9,3.41-5.9,8.19-5.9,12.99c0,4.03,1.4,8.08,4.27,11.35
				c3.41,3.9,8.19,5.89,12.99,5.89c4.03,0,8.08-1.4,11.35-4.26c3.9-3.41,5.89-8.19,5.89-12.99c0-0.99-0.08-1.98-0.25-2.97l0.05-0.14
				c1.42-3.66,3.68-5.67,5.65-6.83c0.98-0.58,1.9-0.93,2.59-1.16c0.53-0.17,0.85-0.24,1.13-0.32c1.53,0.43,3.11,0.64,4.69,0.64
				c4.02,0,8.06-1.4,11.33-4.25c3.89-3.41,5.89-8.19,5.89-12.99C243.07,180.02,241.67,175.96,238.81,172.7z M229.64,188.41
				c-1.1,0.96-2.46,1.43-3.81,1.43c-1.61,0-3.21-0.67-4.36-1.98c-0.96-1.1-1.43-2.46-1.43-3.81c0-1.62,0.67-3.22,1.98-4.36
				c1.1-0.96,2.46-1.43,3.81-1.43c1.61,0,3.21,0.67,4.36,1.98c0.96,1.1,1.43,2.45,1.43,3.81
				C231.62,185.66,230.95,187.26,229.64,188.41z M230.12,188.95L230.12,188.95L230.12,188.95L230.12,188.95z M198.58,216.41
				L198.58,216.41c-1.11,0.96-2.46,1.43-3.82,1.43c-1.61,0-3.22-0.67-4.36-1.98c-0.96-1.1-1.43-2.45-1.43-3.81
				c0-1.61,0.67-3.21,1.98-4.36c1.1-0.96,2.45-1.43,3.8-1.43c1.61,0,3.21,0.67,4.36,1.98c0.96,1.1,1.43,2.46,1.43,3.81
				C200.55,213.67,199.88,215.26,198.58,216.41z M199.05,216.95L199.05,216.95L199.05,216.95L199.05,216.95z M299.96,132.75
				c-1.85,0-3.74,0.3-5.58,0.93c-5.45,1.86-9.36,6.19-10.92,11.31l-0.03,0.03c-4.25,4.33-7.86,5.18-10.26,5.19
				c-0.88,0-1.61-0.12-2.14-0.24c-0.46-0.1-0.7-0.19-0.98-0.25c-2.78-1.83-6.07-2.84-9.47-2.84c-1.84,0-3.72,0.3-5.56,0.93
				c-7.16,2.45-11.67,9.15-11.67,16.32c0,1.85,0.3,3.74,0.93,5.59c2.46,7.16,9.15,11.66,16.32,11.66c1.85,0,3.74-0.3,5.58-0.93
				c5.91-2.03,10.01-6.94,11.26-12.63l0.11-0.11c3.5-3.68,7.25-4.3,9.64-4.3c1.06,0,1.74,0.12,2.18,0.17
				c3,2.34,6.74,3.67,10.62,3.67c1.85,0,3.73-0.3,5.57-0.93c7.17-2.46,11.67-9.15,11.67-16.32c0-1.85-0.3-3.74-0.93-5.58
				C313.83,137.25,307.13,132.75,299.96,132.75z M294.17,149.99c0-2.4,1.51-4.65,3.92-5.47c0.62-0.21,1.25-0.32,1.87-0.32
				c2.4,0,4.65,1.51,5.48,3.92c0.21,0.62,0.31,1.25,0.31,1.87c0,2.41-1.51,4.66-3.92,5.48v0c-0.62,0.21-1.25,0.31-1.87,0.31
				c-2.41,0-4.66-1.51-5.48-3.92C294.27,151.24,294.17,150.61,294.17,149.99z M254.8,164.12c0-2.4,1.51-4.65,3.92-5.47
				c0.62-0.21,1.25-0.31,1.87-0.31c2.4,0,4.66,1.51,5.48,3.92c0.21,0.62,0.31,1.25,0.31,1.87c0,2.41-1.51,4.66-3.91,5.48
				c-0.62,0.21-1.26,0.31-1.88,0.31c-2.41,0-4.66-1.51-5.48-3.91C254.9,165.38,254.8,164.75,254.8,164.12z M458.91,568.02
				c-1.57,0-3.17,0.22-4.76,0.67c-6.01,1.72-10.35,6.42-11.88,12.04l-0.11,0.1c-3.35,3.19-6.79,3.82-9.18,3.83
				c-0.83,0-1.53-0.08-2.04-0.16c-0.37-0.05-0.59-0.11-0.79-0.14c-3.1-2.67-7.09-4.22-11.28-4.22c-1.57,0-3.16,0.21-4.74,0.67
				c-7.57,2.17-12.5,9.07-12.5,16.57c0,1.57,0.22,3.17,0.67,4.76c2.17,7.57,9.07,12.49,16.57,12.49c1.57,0,3.17-0.22,4.75-0.67
				l-0.2-0.69l0.2,0.69c5.54-1.59,9.66-5.71,11.48-10.74l0.03-0.03c4.16-3.84,7.62-4.67,10.01-4.68c1.03,0,1.86,0.16,2.48,0.32
				c0.53,0.14,0.81,0.26,1.11,0.34c2.92,2.13,6.47,3.34,10.19,3.34c1.56,0,3.16-0.22,4.74-0.67c7.57-2.17,12.5-9.07,12.5-16.57
				c0-1.57-0.21-3.17-0.67-4.76C473.32,572.95,466.41,568.02,458.91,568.02z M457.31,579.7c0.53-0.15,1.07-0.23,1.6-0.23
				c2.52,0,4.84,1.66,5.56,4.2c0.16,0.53,0.23,1.07,0.23,1.6c0,2.51-1.66,4.83-4.2,5.56c-0.53,0.15-1.07,0.22-1.6,0.22
				c-2.51,0-4.83-1.66-5.56-4.19c-0.16-0.53-0.23-1.07-0.23-1.6C453.11,582.75,454.77,580.42,457.31,579.7l-0.2-0.69l0,0
				L457.31,579.7z M424.66,597.39c0,2.51-1.66,4.83-4.2,5.56c-0.53,0.15-1.07,0.22-1.6,0.22c-2.52,0-4.84-1.65-5.56-4.19
				c-0.16-0.54-0.23-1.07-0.23-1.6c0-2.52,1.65-4.84,4.2-5.56c0.54-0.15,1.07-0.23,1.6-0.23c2.51,0,4.83,1.66,5.56,4.2
				C424.59,596.33,424.66,596.87,424.66,597.39z M380.48,588.33c-0.08,0-0.17,0-0.27,0c-6.14,0-11.55,3.21-14.6,8.08l-0.14,0.07
				c-2.31,1.16-4.4,1.54-6.21,1.55c-1.84,0-3.38-0.41-4.49-0.83c-0.56-0.21-1.01-0.42-1.34-0.59c-0.22-0.11-0.35-0.18-0.48-0.25
				c-3-4.75-8.26-7.95-14.3-8.04c-0.08,0-0.17-0.01-0.27-0.01c-9.4,0-17.1,7.55-17.24,16.99c0,0.08,0,0.17,0,0.27
				c0,9.4,7.55,17.09,16.98,17.24l0.01-0.72l-0.01,0.72h0.27c5.65,0,10.68-2.73,13.83-6.95l0.04-0.02c3.15-1.52,5.71-2.02,7.74-2.02
				c2.04,0,3.55,0.5,4.62,1.01c0.95,0.46,1.42,0.86,1.82,1.11c3.09,4.1,7.97,6.8,13.51,6.89c0.09,0,0.18,0,0.26,0
				c9.41,0,17.09-7.55,17.25-16.99v-0.26C397.47,596.17,389.91,588.48,380.48,588.33z M374.43,605.53c0.05-3.21,2.63-5.74,5.78-5.74
				h0.01c0.04,0,0.04,0,0.04,0l0.06-0.71l-0.01,0.72c3.17,0.05,5.7,2.63,5.7,5.79v0.11c-0.05,3.14-2.63,5.68-5.79,5.68
				c-0.02,0-0.06,0-0.15,0.01c-3.11-0.05-5.64-2.64-5.64-5.79V605.53z M332.6,605.51c0.05-3.21,2.63-5.74,5.79-5.74l0.01,0
				l0.05,0.01h0.03c3.17,0.05,5.7,2.63,5.7,5.78v0.1c-0.05,3.15-2.62,5.69-5.78,5.69h-0.08h-0.07c-3.11-0.05-5.64-2.63-5.64-5.78
				V605.51z M304.29,582.26c-1.58-0.46-3.18-0.67-4.75-0.67c-4.38,0-8.56,1.68-11.7,4.59l-0.15,0.03c-1.08,0.22-2.09,0.32-3.03,0.32
				c-2.86,0-5.04-0.89-6.58-1.81c-0.77-0.46-1.37-0.93-1.8-1.29c-0.31-0.26-0.49-0.43-0.65-0.58c-1.66-5.37-5.91-9.83-11.72-11.49
				c-1.58-0.46-3.18-0.67-4.75-0.67c-7.5,0-14.4,4.93-16.57,12.51c-0.46,1.58-0.67,3.18-0.67,4.75c0,7.5,4.94,14.4,12.51,16.57
				c1.58,0.46,3.18,0.67,4.75,0.67c3.92,0,7.67-1.35,10.67-3.71l0.04-0.01c1.54-0.29,2.91-0.42,4.13-0.42
				c3.48,0,5.75,0.99,7.22,2.01c0.74,0.5,1.27,1.02,1.65,1.43c0.32,0.34,0.47,0.57,0.67,0.77c1.92,4.76,5.92,8.64,11.24,10.16
				c1.58,0.46,3.18,0.67,4.75,0.67c7.5,0,14.4-4.94,16.57-12.51c0.45-1.59,0.67-3.18,0.67-4.75
				C316.79,591.32,311.86,584.42,304.29,582.26z M301.33,592.58l-0.2,0.69c2.54,0.73,4.2,3.05,4.2,5.56c0,0.52-0.07,1.06-0.22,1.6
				c-0.73,2.54-3.05,4.2-5.57,4.2c-0.53,0-1.06-0.07-1.6-0.23c-2.54-0.72-4.19-3.05-4.19-5.56c0-0.53,0.07-1.06,0.22-1.59
				c0.73-2.55,3.05-4.2,5.56-4.2c0.53,0,1.06,0.07,1.59,0.23L301.33,592.58L301.33,592.58z M259.17,593.72
				c-0.53,0-1.07-0.07-1.6-0.23c-2.54-0.73-4.2-3.04-4.2-5.56c0-0.53,0.07-1.06,0.23-1.6c0.73-2.55,3.04-4.2,5.56-4.2
				c0.53,0,1.07,0.07,1.6,0.22c2.54,0.73,4.19,3.04,4.19,5.56c0,0.52-0.07,1.06-0.22,1.6C264,592.06,261.68,593.72,259.17,593.72z
				 M537.57,217.01c2.21-3.05,3.27-6.59,3.27-10.1c0-5.34-2.48-10.61-7.13-13.98c-3.05-2.21-6.59-3.28-10.1-3.28
				c-1.85,0-3.68,0.3-5.44,0.88l-0.04-0.01c-5.18-0.84-7.95-2.8-9.52-4.58c-0.78-0.89-1.25-1.74-1.56-2.41
				c-0.26-0.57-0.35-0.91-0.49-1.23c-0.17-5.13-2.62-10.14-7.11-13.39c-3.05-2.21-6.59-3.28-10.1-3.28
				c-5.34,0-10.61,2.48-13.98,7.14c-2.21,3.05-3.28,6.59-3.28,10.1c0,5.34,2.48,10.61,7.14,13.99c3.05,2.21,6.59,3.27,10.09,3.27
				c2.3,0,4.59-0.46,6.72-1.35l0.15,0.02c3.88,0.57,6.35,2.32,7.92,3.98c0.78,0.83,1.33,1.64,1.7,2.27
				c0.29,0.48,0.43,0.78,0.57,1.03c-0.02,0.28-0.02,0.55-0.02,0.83c0,5.33,2.47,10.6,7.12,13.97c3.05,2.21,6.59,3.28,10.1,3.28h0.01
				C528.93,224.15,534.19,221.67,537.57,217.01z M518.9,203.51c1.13-1.56,2.9-2.39,4.69-2.4c1.18,0,2.36,0.36,3.39,1.1
				c1.57,1.13,2.39,2.9,2.39,4.69c0,1.18-0.35,2.36-1.1,3.39c-1.14,1.57-2.9,2.39-4.7,2.4c-1.18,0-2.36-0.36-3.39-1.1
				c-1.57-1.13-2.39-2.9-2.4-4.69C517.8,205.72,518.16,204.54,518.9,203.51z M483.56,182.88c0-1.18,0.36-2.36,1.1-3.39
				c1.13-1.57,2.89-2.39,4.69-2.39c1.17,0,2.36,0.35,3.39,1.1c1.57,1.13,2.39,2.9,2.39,4.69c0,1.18-0.35,2.36-1.1,3.39
				c-1.13,1.56-2.9,2.39-4.69,2.39c-1.18,0-2.36-0.36-3.39-1.1C484.39,186.44,483.56,184.68,483.56,182.88z M548.75,256.91
				l0.13,0.08c3.27,2.18,4.75,4.81,5.46,6.99c0.35,1.08,0.5,2.05,0.57,2.78c0.06,0.56,0.05,0.89,0.07,1.17
				c-1.34,2.5-2.04,5.3-2.04,8.15c0,2.8,0.68,5.64,2.13,8.26c3.14,5.72,9.04,8.95,15.13,8.95c2.8,0,5.65-0.69,8.28-2.13
				c5.72-3.14,8.95-9.04,8.95-15.14c0-2.8-0.69-5.65-2.13-8.28c-2.77-5.05-7.71-8.17-13.02-8.82l-0.03-0.03
				c-6.33-4.37-7-8.66-7.02-10.9c0-0.7,0.07-1.14,0.09-1.48c0.94-2.17,1.43-4.52,1.43-6.89c0-2.79-0.68-5.63-2.12-8.26
				c-3.14-5.72-9.05-8.95-15.14-8.95c-2.81,0-5.65,0.68-8.28,2.13c-5.72,3.14-8.95,9.04-8.95,15.13c0,2.8,0.68,5.65,2.13,8.29
				C537.39,253.45,542.93,256.65,548.75,256.91z M555.29,239.67c0,2.05-1.09,4.03-3,5.08c-0.89,0.49-1.84,0.71-2.78,0.71
				c-2.05,0-4.03-1.08-5.08-3c-0.49-0.89-0.72-1.84-0.72-2.78c0-2.05,1.09-4.03,3.01-5.08c0.89-0.49,1.84-0.72,2.78-0.72
				c2.04,0,4.02,1.08,5.08,3.01C555.06,237.78,555.29,238.73,555.29,239.67z M564.37,276.05c0-2.05,1.09-4.03,3.01-5.08
				c0.89-0.49,1.84-0.72,2.78-0.72c2.04,0,4.02,1.08,5.08,3.01c0.48,0.88,0.71,1.84,0.71,2.78c0,2.04-1.09,4.03-3,5.08
				c-0.89,0.49-1.84,0.71-2.78,0.71c-2.05,0-4.03-1.08-5.08-3C564.61,277.94,564.37,276.99,564.37,276.05z M581.52,295.67
				c-8.58,1.25-14.75,8.62-14.76,17.05c0,0.83,0.06,1.67,0.19,2.51c0.9,6.18,4.98,11.11,10.34,13.39l0.09,0.12
				c2.12,2.92,2.67,5.68,2.68,7.88c0,1.29-0.2,2.39-0.4,3.2c-0.16,0.63-0.3,0.99-0.39,1.3c-3.62,3.2-5.84,7.86-5.84,12.9
				c0,0.83,0.06,1.66,0.18,2.51c1.25,8.58,8.62,14.75,17.04,14.75c0.83,0,1.67-0.06,2.51-0.18c8.58-1.25,14.76-8.62,14.76-17.05
				c0-0.83-0.06-1.67-0.18-2.51l-0.71,0.1l0,0l0.71-0.11c-0.83-5.7-4.37-10.34-9.11-12.81l-0.03-0.03
				c-2.67-3.81-3.38-6.87-3.38-9.16c0-1.44,0.29-2.58,0.58-3.4c0.26-0.72,0.49-1.09,0.63-1.45c3.01-3.14,4.83-7.38,4.83-11.93
				c0-0.83-0.06-1.66-0.18-2.5c-1.26-8.58-8.63-14.76-17.05-14.76C583.2,295.48,582.36,295.54,581.52,295.67z M578.23,312.73
				c0-2.83,2.07-5.3,4.95-5.72c0.29-0.04,0.57-0.06,0.85-0.06c2.82,0,5.3,2.07,5.72,4.96c0.04,0.28,0.06,0.56,0.06,0.84
				c0,2.82-2.07,5.3-4.95,5.72c-0.28,0.04-0.57,0.06-0.85,0.06c-2.82,0-5.3-2.07-5.72-4.95l-0.71,0.1l0,0l0.71-0.11
				C578.25,313.29,578.23,313,578.23,312.73z M584.88,354.02c0-2.83,2.07-5.3,4.95-5.72c0.29-0.04,0.57-0.06,0.85-0.06
				c2.83,0,5.3,2.07,5.72,4.95c0.04,0.28,0.06,0.56,0.06,0.84c0,2.83-2.07,5.3-4.95,5.72c-0.28,0.04-0.57,0.06-0.85,0.06
				c-2.82,0-5.3-2.07-5.72-4.95C584.9,354.58,584.88,354.3,584.88,354.02z M595.75,377.06c-1.22-0.26-2.43-0.38-3.62-0.38
				c-7.97,0-15.12,5.55-16.85,13.65c-0.26,1.21-0.39,2.42-0.39,3.62c0,4.82,2.03,9.33,5.42,12.53l0.04,0.15
				c0.4,1.42,0.56,2.73,0.56,3.92c0,2.57-0.75,4.59-1.52,6.03c-0.39,0.72-0.78,1.29-1.09,1.7c-0.21,0.3-0.36,0.46-0.48,0.62
				c-5.24,2.02-9.4,6.57-10.67,12.47c-0.26,1.21-0.38,2.42-0.38,3.62c0,7.96,5.54,15.11,13.65,16.85c1.21,0.26,2.42,0.38,3.62,0.38
				c7.96,0,15.11-5.55,16.85-13.64l-0.71-0.15l0,0l0.71,0.15c0.25-1.21,0.38-2.42,0.38-3.61c0-4.35-1.65-8.45-4.46-11.56l-0.01-0.05
				c-0.53-2.02-0.74-3.76-0.74-5.26c0-3.03,0.85-5.07,1.71-6.43c0.43-0.68,0.87-1.19,1.22-1.55c0.29-0.31,0.48-0.46,0.66-0.65
				c4.62-2.24,8.21-6.49,9.37-11.91c0.26-1.22,0.38-2.42,0.38-3.62C609.39,385.94,603.85,378.79,595.75,377.06z M586.48,392.72
				c0.58-2.72,2.98-4.59,5.65-4.59c0.4,0,0.81,0.04,1.21,0.13c2.72,0.58,4.59,2.98,4.59,5.65c0,0.4-0.04,0.81-0.13,1.22
				c-0.58,2.71-2.99,4.58-5.66,4.58c-0.4,0-0.81-0.04-1.22-0.13c-2.72-0.58-4.58-2.98-4.58-5.66
				C586.35,393.53,586.4,393.12,586.48,392.72l-0.7-0.15l0,0L586.48,392.72z M578.36,433.75c0.58-2.72,2.98-4.58,5.65-4.58
				c0.4,0,0.8,0.04,1.21,0.13c2.72,0.58,4.59,2.98,4.59,5.65c0,0.4-0.04,0.81-0.13,1.22c-0.58,2.72-2.98,4.58-5.65,4.58
				c-0.4,0-0.81-0.04-1.22-0.13c-2.71-0.58-4.58-2.98-4.58-5.65C578.23,434.56,578.27,434.15,578.36,433.75l-0.7-0.15l0,0
				L578.36,433.75z M579.03,455.92c-2.69-1.54-5.64-2.27-8.53-2.27c-5.99,0-11.82,3.13-14.99,8.7c-1.54,2.69-2.28,5.63-2.28,8.53
				c0,2.93,0.75,5.82,2.17,8.39l-0.01,0.15c-0.15,3.93-1.62,6.56-3.11,8.3c-0.74,0.87-1.49,1.5-2.07,1.94
				c-0.44,0.34-0.73,0.51-0.96,0.67c-5.61,0.34-10.95,3.4-13.96,8.65c-1.53,2.7-2.27,5.64-2.27,8.54c0,5.99,3.12,11.81,8.7,14.99
				c2.69,1.54,5.64,2.27,8.54,2.27c5.99,0,11.81-3.12,14.99-8.69c1.53-2.69,2.27-5.64,2.27-8.53c0-2.48-0.53-4.93-1.56-7.17
				l0.01-0.04c0.28-5.25,1.93-8.21,3.53-9.95c0.8-0.87,1.6-1.43,2.23-1.8c0.55-0.33,0.88-0.45,1.18-0.62
				c5.09-0.73,9.8-3.7,12.54-8.5c1.54-2.7,2.27-5.64,2.27-8.54C587.73,464.93,584.61,459.11,579.03,455.92z M565.45,468.04
				l-0.62-0.36h0L565.45,468.04c1.07-1.88,3.03-2.92,5.04-2.92c0.97,0,1.96,0.24,2.86,0.76c1.88,1.07,2.92,3.02,2.92,5.03
				c0,0.97-0.25,1.96-0.76,2.87c-1.07,1.87-3.02,2.92-5.03,2.92c-0.97,0-1.96-0.24-2.86-0.76c-1.87-1.07-2.92-3.02-2.92-5.04
				C564.69,469.92,564.93,468.94,565.45,468.04z M545.26,504.66c1.07-1.87,3.02-2.92,5.03-2.92c0.97,0,1.96,0.24,2.86,0.76
				c1.87,1.07,2.92,3.02,2.92,5.03c0,0.97-0.24,1.96-0.76,2.86c-1.07,1.87-3.02,2.92-5.03,2.92c-0.97,0-1.96-0.24-2.87-0.76
				c-1.87-1.07-2.92-3.02-2.92-5.03C544.5,506.55,544.74,505.57,545.26,504.66l-0.62-0.35h0L545.26,504.66z"/>
			<path id="Links" style="clip-path:url(#SVGID_00000168817122099245548780000002656443332931841723_);fill:#FFFFFF;" d="
				M397.72,139.2l6.28,1.41c-0.26,0.49-0.5,0.99-0.72,1.52c-0.88,2.14-1.3,4.35-1.3,6.53c0,0.98,0.09,1.95,0.26,2.91l-6.13-1.38
				c1.21-2.36,1.91-5.03,1.91-7.86C398.02,141.26,397.91,140.21,397.72,139.2z M238.81,172.7c2.07,2.36,3.37,5.14,3.93,8.02
				l5.94-4.11c-1.94-1.85-3.48-4.18-4.41-6.89c-0.34-1-0.58-2.01-0.73-3.03l-6.35,4.4C237.75,171.59,238.3,172.11,238.81,172.7z
				 M541.2,224.56c0.86-0.47,1.75-0.86,2.65-1.17l-6.17-6.55c-0.04,0.06-0.07,0.11-0.11,0.17c-2.29,3.17-5.46,5.32-8.94,6.38
				l6.44,6.84C536.57,227.94,538.63,225.97,541.2,224.56z M314.58,140.85c0.69,1.1,1.26,2.29,1.7,3.57
				c0.63,1.85,0.93,3.73,0.93,5.58c0,0.56-0.04,1.12-0.09,1.67l6.44-0.97c-1.18-2.33-1.85-4.96-1.86-7.74c0-1.1,0.12-2.18,0.31-3.23
				L314.58,140.85z M584.04,452.2c-1.2,0-2.41-0.12-3.62-0.38c-2.27-0.49-4.32-1.41-6.12-2.64l-1.78,4.6
				c2.23,0.26,4.45,0.97,6.52,2.15c1.31,0.75,2.47,1.64,3.5,2.64l2.49-6.41C584.69,452.18,584.37,452.2,584.04,452.2z
				 M571.69,293.22l1.95,5.75c2.24-1.69,4.91-2.87,7.87-3.3c0.84-0.13,1.68-0.19,2.51-0.19c0.04,0,0.09,0.01,0.13,0.01l-2.3-6.78
				c-1.01,0.93-2.14,1.76-3.39,2.45C576.3,292.35,574,293.01,571.69,293.22z M593.16,371.09c-0.84,0.12-1.68,0.18-2.51,0.18
				c-1.23,0-2.43-0.15-3.6-0.4l0.33,6.48c1.53-0.44,3.12-0.69,4.75-0.69c1.19,0,2.4,0.12,3.62,0.38c0.95,0.2,1.87,0.49,2.75,0.84
				l-0.42-8.3C596.56,370.32,594.91,370.84,593.16,371.09z M321.14,605.56c0-0.09,0-0.19,0-0.27c0.04-2.78,0.76-5.39,1.96-7.7
				l-6.47-1.01c0.1,0.74,0.16,1.49,0.16,2.25c0,1.57-0.22,3.16-0.67,4.75c-0.4,1.39-0.96,2.68-1.65,3.88l6.94,1.09
				C321.25,607.57,321.14,606.58,321.14,605.56z M181.78,223.41c-0.99-1.13-1.79-2.36-2.44-3.64l-3.65,4.21
				c1.31,0.41,2.59,0.98,3.81,1.73c2.1,1.28,3.83,2.95,5.15,4.85l2.59-2.99C185.22,226.58,183.35,225.21,181.78,223.41z
				 M136.56,295.92c1.08,0,2.18,0.1,3.28,0.32c2.38,0.46,4.55,1.4,6.43,2.68l2.42-5.25c-2.88-0.09-5.78-0.9-8.42-2.51
				c-0.7-0.43-1.36-0.9-1.98-1.41l-2.86,6.22C135.8,295.95,136.18,295.92,136.56,295.92z M125.71,376.3
				c0.95-0.16,1.89-0.23,2.82-0.23c1.59,0,3.14,0.22,4.62,0.64l0.27-5.61c-1.33,0.33-2.71,0.51-4.12,0.51
				c-1.08,0-2.18-0.1-3.28-0.31c-1.29-0.25-2.5-0.65-3.66-1.15l-0.35,7.21C123.18,376.88,124.41,376.51,125.71,376.3z M397.18,608.6
				l7.52-1.37c-1.05-1.51-1.88-3.22-2.41-5.09c-0.46-1.59-0.67-3.19-0.67-4.76c0-0.29,0.02-0.57,0.04-0.86l-6.13,1.11
				c1.24,2.38,1.94,5.08,1.94,7.94v0.26C397.45,606.78,397.34,607.7,397.18,608.6z M479.31,168.87l-4.1-2.37
				c-0.2,1.34-0.55,2.68-1.08,3.99c-0.94,2.29-2.32,4.26-3.99,5.87l2.7,1.56c0.54-1.8,1.38-3.54,2.54-5.14
				C476.5,171.22,477.83,169.92,479.31,168.87z M138.67,451.51c-0.95,0.15-1.88,0.23-2.81,0.23c-0.14,0-0.27-0.02-0.41-0.02
				l2.32,6.62c0.28-0.21,0.57-0.41,0.86-0.61c2.92-1.93,6.22-2.85,9.47-2.85c0.07,0,0.13,0.01,0.2,0.01l-2.27-6.47
				C143.92,449.97,141.43,451.06,138.67,451.51z M380.77,125.8c-5.71,0-10.74,2.9-13.71,7.3c0-0.06,0-0.12,0-0.19
				c-9.62,4.85-14.38,0.28-14.99,0.03c-3.02-3.95-7.77-6.51-13.12-6.51c-9.12,0-16.52,7.4-16.52,16.52c0,9.13,7.4,16.53,16.52,16.53
				c6.25,0,11.69-3.47,14.5-8.59c0.02,0.1,0.03,0.2,0.04,0.31c7.27-3.81,12.87-0.16,13.34-0.02c2.94,4.61,8.08,7.68,13.94,7.68
				c9.13,0,16.53-7.4,16.53-16.53C397.3,133.2,389.9,125.8,380.77,125.8 M338.95,149.46c-3.59,0-6.51-2.92-6.51-6.51
				c0-3.59,2.92-6.51,6.51-6.51c3.6,0,6.51,2.91,6.51,6.51C345.46,146.55,342.55,149.46,338.95,149.46 M380.77,148.84
				c-3.59,0-6.51-2.91-6.51-6.51c0-3.59,2.92-6.51,6.51-6.51c3.59,0,6.51,2.91,6.51,6.51C387.28,145.93,384.36,148.84,380.77,148.84
				 M464.44,148.65c-5.28-2.16-11.04-1.39-15.45,1.56c0.02-0.06,0.05-0.12,0.07-0.17c-10.74,0.84-13.41-5.2-13.88-5.66
				c-1.3-4.8-4.72-8.97-9.67-11c-8.45-3.46-18.1,0.58-21.56,9.02c-3.46,8.45,0.58,18.1,9.03,21.56c5.78,2.37,12.13,1.22,16.67-2.45
				c-0.02,0.1-0.05,0.2-0.07,0.3c8.17-0.77,11.96,4.74,12.35,5.05c0.96,5.38,4.56,10.17,9.99,12.39c8.45,3.46,18.1-0.58,21.56-9.02
				C476.93,161.77,472.89,152.12,464.44,148.65 M416.77,154.69c-3.33-1.37-4.92-5.17-3.55-8.49c1.36-3.33,5.16-4.92,8.49-3.55
				c3.32,1.36,4.92,5.16,3.56,8.49C423.9,154.46,420.09,156.05,416.77,154.69 M455.7,169.97c-3.33-1.36-4.92-5.17-3.56-8.49
				c1.37-3.32,5.17-4.92,8.49-3.55c3.32,1.36,4.92,5.17,3.56,8.49C462.83,169.74,459.03,171.33,455.7,169.97 M134.32,481.23
				c3.14,4.77,8.33,7.38,13.64,7.43c-0.05,0.04-0.1,0.07-0.16,0.1c9.34,5.37,8.15,11.86,8.27,12.51
				c-1.64,4.69-1.16,10.07,1.79,14.54c5.02,7.62,15.27,9.73,22.89,4.71c7.62-5.02,9.72-15.27,4.7-22.89
				c-3.44-5.22-9.33-7.85-15.15-7.38c0.08-0.07,0.15-0.13,0.23-0.21c-7.18-3.97-7.21-10.66-7.36-11.13
				c2.24-4.98,1.97-10.96-1.26-15.87c-5.02-7.62-15.27-9.73-22.89-4.7C131.41,463.36,129.3,473.61,134.32,481.23 M177.09,503.13
				c1.98,3.01,1.15,7.04-1.85,9.02c-3,1.98-7.04,1.15-9.02-1.86c-1.98-3-1.15-7.04,1.85-9.02
				C171.07,499.3,175.11,500.14,177.09,503.13 M153.55,468.55c1.98,3.01,1.15,7.04-1.86,9.02c-3,1.98-7.04,1.15-9.01-1.86
				c-1.97-3-1.15-7.04,1.86-9.02C147.54,464.72,151.57,465.55,153.55,468.55 M112.19,395.99c0.93,5.64,4.59,10.13,9.42,12.35
				c-0.06,0.01-0.12,0.02-0.19,0.03c6.34,8.72,2.6,14.15,2.45,14.79c-3.41,3.62-5.17,8.72-4.3,14c1.48,9.01,9.97,15.12,18.98,13.64
				c9-1.48,15.11-9.98,13.63-18.98c-1.01-6.17-5.31-10.97-10.82-12.92c0.1-0.03,0.19-0.06,0.29-0.1
				c-4.93-6.56-2.23-12.67-2.17-13.16c4.08-3.64,6.27-9.21,5.33-15c-1.48-9.01-9.98-15.11-18.98-13.64
				C116.83,378.49,110.72,386.98,112.19,395.99 M142.3,433.44c0.58,3.55-1.82,6.9-5.37,7.48c-3.55,0.58-6.89-1.82-7.48-5.37
				c-0.58-3.55,1.83-6.9,5.37-7.48C138.37,427.49,141.72,429.89,142.3,433.44 M134.93,392.27c0.58,3.55-1.83,6.9-5.38,7.48
				c-3.55,0.58-6.89-1.82-7.47-5.37c-0.58-3.55,1.82-6.89,5.37-7.47C131,386.32,134.34,388.72,134.93,392.27 M120.35,310.05
				c-1.08,5.6,0.81,11.09,4.57,14.84c-0.06-0.01-0.12-0.02-0.19-0.04c2.94,10.37-2.44,14.18-2.81,14.73
				c-4.45,2.22-7.86,6.4-8.87,11.66c-1.73,8.96,4.14,17.63,13.11,19.36c8.95,1.72,17.62-4.14,19.35-13.11
				c1.18-6.14-1.2-12.13-5.7-15.86c0.11,0.01,0.21,0.01,0.31,0.01c-2.37-7.86,2.28-12.66,2.51-13.1c5.08-2.01,9.07-6.48,10.18-12.24
				c1.73-8.96-4.14-17.63-13.1-19.35C130.74,295.22,122.08,301.09,120.35,310.05 M135.67,355.59c-0.68,3.54-4.09,5.84-7.62,5.16
				c-3.53-0.68-5.84-4.09-5.16-7.62c0.68-3.53,4.09-5.84,7.62-5.16C134.04,348.65,136.35,352.06,135.67,355.59 M142.97,314.41
				c-0.68,3.53-4.09,5.84-7.62,5.16c-3.53-0.68-5.84-4.09-5.16-7.62c0.68-3.53,4.09-5.84,7.62-5.16
				C141.34,307.47,143.65,310.88,142.97,314.41 M156.41,231.81c-2.98,4.87-3.13,10.68-0.92,15.51c-0.05-0.03-0.11-0.07-0.16-0.1
				c-0.88,10.74-7.26,12.42-7.79,12.81c-4.95,0.52-9.61,3.24-12.4,7.81c-4.76,7.79-2.3,17.96,5.49,22.72
				c7.79,4.75,17.96,2.29,22.72-5.5c3.26-5.34,3.13-11.79,0.22-16.85c0.1,0.04,0.19,0.08,0.29,0.12c0.53-8.19,6.57-11.06,6.93-11.39
				c5.46-0.1,10.76-2.89,13.82-7.9c4.76-7.79,2.3-17.96-5.49-22.72C171.34,221.56,161.17,224.02,156.41,231.81 M154.81,279.83
				c-1.87,3.07-5.88,4.04-8.94,2.17c-3.07-1.87-4.04-5.88-2.17-8.95c1.87-3.07,5.88-4.04,8.95-2.16
				C155.72,272.76,156.68,276.77,154.81,279.83 M176.07,243.81c-1.87,3.07-5.88,4.04-8.95,2.16c-3.07-1.87-4.04-5.88-2.16-8.95
				c1.87-3.07,5.87-4.04,8.95-2.16C176.98,236.74,177.95,240.75,176.07,243.81 M214.95,171.61c-4.3,3.76-6.18,9.25-5.51,14.52
				c-0.04-0.05-0.08-0.09-0.12-0.14c-4.05,9.99-10.64,9.68-11.27,9.89c-4.87-0.98-10.13,0.21-14.17,3.74
				c-6.87,6.01-7.57,16.45-1.56,23.32c6.01,6.86,16.45,7.56,23.32,1.56c4.71-4.12,6.51-10.31,5.26-16.01
				c0.08,0.07,0.15,0.13,0.24,0.2c2.96-7.65,9.58-8.59,10.03-8.8c5.24,1.54,11.13,0.47,15.55-3.4c6.87-6.01,7.57-16.45,1.56-23.32
				C232.26,166.3,221.82,165.6,214.95,171.61 M199.05,216.95c-2.71,2.37-6.82,2.1-9.18-0.61c-2.37-2.7-2.1-6.82,0.61-9.19
				c2.71-2.37,6.82-2.09,9.19,0.61C202.03,210.48,201.75,214.59,199.05,216.95 M230.12,188.95c-2.71,2.37-6.82,2.09-9.18-0.61
				c-2.37-2.71-2.1-6.82,0.61-9.19c2.7-2.37,6.82-2.09,9.18,0.62C233.1,182.47,232.82,186.58,230.12,188.95 M294.61,134.36
				c-5.4,1.85-9.22,6.22-10.61,11.35c-0.02-0.06-0.04-0.12-0.06-0.18c-7.54,7.71-13.52,4.92-14.17,4.88
				c-4.14-2.76-9.46-3.65-14.53-1.91c-8.63,2.95-13.24,12.35-10.29,20.99c2.96,8.63,12.36,13.24,20.99,10.28
				c5.92-2.03,9.93-7.07,10.93-12.82c0.05,0.1,0.09,0.18,0.14,0.28c5.65-5.96,12.12-4.31,12.62-4.34
				c4.26,3.42,10.12,4.65,15.68,2.75c8.64-2.96,13.24-12.35,10.28-20.99C312.64,136.01,303.25,131.41,294.61,134.36 M262.7,170.29
				c-3.4,1.16-7.1-0.65-8.26-4.05c-1.17-3.4,0.65-7.1,4.05-8.27c3.4-1.16,7.1,0.65,8.27,4.05
				C267.92,165.43,266.1,169.12,262.7,170.29 M302.07,156.16c-3.4,1.16-7.1-0.65-8.27-4.05c-1.16-3.4,0.65-7.1,4.05-8.26
				c3.4-1.16,7.1,0.65,8.26,4.05C307.28,151.29,305.47,154.99,302.07,156.16 M423.43,613.28c5.49-1.57,9.53-5.74,11.17-10.8
				c0.02,0.06,0.03,0.12,0.05,0.19c7.92-7.31,13.75-4.23,14.4-4.15c3.99,2.96,9.26,4.12,14.41,2.64
				c8.77-2.51,13.85-11.66,11.33-20.44c-2.51-8.77-11.67-13.85-20.44-11.33c-6.01,1.72-10.28,6.56-11.56,12.25
				c-0.05-0.1-0.08-0.19-0.13-0.28c-5.94,5.66-12.33,3.69-12.82,3.69c-4.09-3.62-9.88-5.16-15.52-3.54
				c-8.77,2.51-13.85,11.66-11.33,20.44C405.5,610.72,414.65,615.79,423.43,613.28 M457.11,579.01c3.46-0.99,7.06,1.01,8.05,4.46
				c0.99,3.46-1.01,7.06-4.46,8.05c-3.46,0.99-7.06-1.01-8.05-4.46C451.66,583.61,453.66,580,457.11,579.01 M417.08,591.13
				c3.46-0.99,7.06,1.01,8.05,4.47c0.99,3.46-1.01,7.06-4.46,8.05c-3.46,0.99-7.06-1.01-8.05-4.46
				C411.62,595.73,413.62,592.13,417.08,591.13 M338.14,622.08c5.71,0.09,10.79-2.73,13.82-7.09c0,0.07,0,0.13-0.01,0.19
				c9.7-4.7,14.38-0.06,14.99,0.2c2.96,4,7.67,6.63,13.03,6.71c9.13,0.14,16.64-7.14,16.78-16.27c0.14-9.12-7.15-16.64-16.27-16.78
				c-6.25-0.1-11.74,3.3-14.62,8.37c-0.01-0.11-0.02-0.2-0.04-0.31c-7.33,3.7-12.87-0.04-13.34-0.19c-2.86-4.66-7.95-7.8-13.82-7.89
				c-9.12-0.14-16.64,7.14-16.78,16.27C321.73,614.43,329.01,621.94,338.14,622.08 M380.31,599.07c3.6,0.05,6.46,3.01,6.41,6.6
				c-0.06,3.6-3.02,6.46-6.61,6.41c-3.59-0.05-6.46-3.01-6.41-6.61C373.77,601.88,376.73,599.01,380.31,599.07 M338.49,599.05
				c3.59,0.05,6.46,3.01,6.41,6.61c-0.05,3.6-3.01,6.46-6.6,6.41c-3.6-0.05-6.47-3.01-6.41-6.61
				C331.94,601.87,334.9,599,338.49,599.05 M254.62,603.82c5.49,1.57,11.12,0.17,15.19-3.24c-0.02,0.06-0.04,0.12-0.06,0.18
				c10.59-2.01,13.9,3.69,14.42,4.1c1.82,4.63,5.68,8.4,10.83,9.87c8.78,2.51,17.92-2.57,20.44-11.34
				c2.51-8.77-2.57-17.92-11.35-20.43c-6.01-1.72-12.19,0.12-16.3,4.27c0.02-0.11,0.03-0.2,0.04-0.31
				c-8.04,1.66-12.41-3.39-12.83-3.65c-1.55-5.24-5.65-9.6-11.29-11.22c-8.77-2.51-17.92,2.57-20.43,11.34
				C240.76,592.15,245.84,601.3,254.62,603.82 M301.33,592.58c3.46,0.99,5.46,4.59,4.47,8.05c-0.98,3.46-4.59,5.46-8.05,4.47
				c-3.45-0.99-5.46-4.59-4.47-8.05C294.28,593.59,297.88,591.59,301.33,592.58 M260.95,581.67c3.46,0.99,5.45,4.59,4.47,8.05
				c-0.99,3.46-4.59,5.46-8.05,4.47c-3.46-0.99-5.46-4.59-4.46-8.05C253.89,582.68,257.5,580.68,260.95,581.67 M533.28,193.52
				c-4.63-3.35-10.4-3.95-15.39-2.13c0.04-0.05,0.07-0.1,0.12-0.15c-10.64-1.72-11.82-8.21-12.16-8.77
				c-0.13-4.97-2.48-9.83-6.82-12.97c-7.39-5.35-17.72-3.69-23.08,3.7c-5.35,7.39-3.69,17.73,3.7,23.08
				c5.06,3.66,11.5,4.04,16.78,1.54c-0.05,0.09-0.09,0.18-0.14,0.28c8.12,1.18,10.51,7.42,10.81,7.81
				c-0.33,5.45,2.04,10.95,6.79,14.39c7.39,5.35,17.72,3.69,23.08-3.7C542.33,209.2,540.68,198.87,533.28,193.52 M485.54,188.16
				c-2.92-2.11-3.57-6.18-1.46-9.09c2.11-2.91,6.18-3.57,9.09-1.46c2.91,2.11,3.56,6.18,1.46,9.09
				C492.52,189.62,488.44,190.27,485.54,188.16 M519.78,212.18c-2.91-2.11-3.57-6.18-1.46-9.09c2.11-2.91,6.18-3.57,9.09-1.46
				c2.91,2.11,3.56,6.18,1.46,9.09C526.76,213.63,522.69,214.29,519.78,212.18 M584.65,268.09c-2.75-5.01-7.71-8.02-13-8.51
				c0.06-0.03,0.11-0.06,0.17-0.09c-8.88-6.11-7.17-12.47-7.23-13.13c2.01-4.55,1.97-9.94-0.61-14.64
				c-4.39-8-14.44-10.93-22.44-6.54c-8,4.39-10.92,14.44-6.54,22.44c3.01,5.48,8.67,8.57,14.51,8.57c-0.08,0.06-0.16,0.12-0.24,0.19
				c6.84,4.54,6.33,11.21,6.43,11.69c-2.63,4.78-2.85,10.77-0.02,15.91c4.39,8,14.44,10.93,22.44,6.54
				C586.12,286.14,589.05,276.09,584.65,268.09 M543.79,242.81c-1.74-3.15-0.58-7.11,2.57-8.84s7.11-0.58,8.84,2.58
				c1.73,3.15,0.58,7.11-2.57,8.84C549.48,247.12,545.52,245.96,543.79,242.81 M564.46,279.18c-1.73-3.15-0.58-7.11,2.58-8.84
				c3.15-1.73,7.11-0.58,8.84,2.57c1.73,3.15,0.58,7.11-2.57,8.84C570.15,283.48,566.19,282.33,564.46,279.18 M607.03,351.64
				c-0.82-5.65-4.42-10.21-9.2-12.52c0.07-0.01,0.12-0.02,0.19-0.02c-6.19-8.83-2.35-14.19-2.19-14.83
				c3.47-3.56,5.32-8.63,4.54-13.93c-1.31-9.03-9.71-15.28-18.74-13.97c-9.03,1.32-15.28,9.71-13.96,18.74
				c0.9,6.19,5.12,11.07,10.59,13.1c-0.1,0.03-0.2,0.06-0.3,0.09c4.82,6.64,2.01,12.71,1.94,13.2c-4.14,3.57-6.43,9.1-5.58,14.9
				c1.32,9.03,9.71,15.28,18.74,13.97C602.09,369.06,608.34,360.67,607.03,351.64 M577.58,313.67c-0.52-3.56,1.94-6.86,5.5-7.38
				c3.56-0.52,6.86,1.94,7.38,5.5c0.52,3.56-1.95,6.86-5.5,7.38C581.4,319.7,578.09,317.23,577.58,313.67 M584.23,354.97
				c-0.52-3.56,1.94-6.86,5.5-7.38c3.56-0.52,6.86,1.94,7.38,5.5c0.52,3.56-1.94,6.86-5.5,7.38
				C588.05,360.99,584.75,358.53,584.23,354.97 M600.18,438.41c1.19-5.59-0.59-11.11-4.28-14.94c0.07,0.01,0.12,0.03,0.19,0.04
				c-2.73-10.43,2.73-14.12,3.1-14.66c4.49-2.13,7.99-6.24,9.11-11.48c1.91-8.93-3.78-17.71-12.71-19.61
				c-8.93-1.91-17.71,3.79-19.61,12.71c-1.31,6.11,0.95,12.16,5.37,15.97c-0.1-0.01-0.2-0.01-0.31-0.02
				c2.21,7.91-2.53,12.62-2.77,13.05c-5.12,1.9-9.19,6.29-10.42,12.03c-1.91,8.92,3.78,17.71,12.71,19.61
				C589.49,453.02,598.28,447.33,600.18,438.41 M585.78,392.57c0.75-3.52,4.21-5.76,7.73-5.01c3.51,0.75,5.75,4.21,5.01,7.73
				c-0.75,3.51-4.21,5.76-7.73,5.01C587.27,399.54,585.03,396.08,585.78,392.57 M577.66,433.59c0.75-3.51,4.21-5.75,7.73-5
				c3.51,0.75,5.76,4.21,5,7.73c-0.75,3.51-4.21,5.75-7.73,5C579.15,440.57,576.91,437.11,577.66,433.59 M564.64,515.73
				c2.83-4.96,2.81-10.76,0.46-15.53c0.06,0.03,0.11,0.06,0.17,0.1c0.56-10.76,6.89-12.63,7.41-13.03c4.93-0.67,9.5-3.52,12.16-8.17
				c4.52-7.93,1.77-18.01-6.16-22.54c-7.93-4.52-18.02-1.77-22.54,6.16c-3.1,5.43-2.78,11.87,0.27,16.85
				c-0.1-0.04-0.19-0.07-0.29-0.11c-0.3,8.2-6.24,11.25-6.6,11.59c-5.46,0.25-10.67,3.2-13.58,8.3c-4.53,7.93-1.77,18.02,6.16,22.54
				C550.02,526.41,560.12,523.66,564.64,515.73 M564.83,467.68c1.79-3.13,5.76-4.21,8.88-2.43c3.12,1.78,4.21,5.75,2.43,8.88
				c-1.78,3.12-5.76,4.21-8.88,2.42C564.13,474.78,563.05,470.8,564.83,467.68 M544.64,504.31c1.78-3.12,5.76-4.21,8.88-2.42
				c3.12,1.78,4.21,5.76,2.42,8.88c-1.78,3.12-5.76,4.21-8.88,2.42C543.94,511.41,542.86,507.43,544.64,504.31"/>
		</g>
	</g>
	<g id="Falcon_Face_-_Above_Chain">
		<g>
			<defs>
				<path id="SVGID_00000006693483750656455580000002853913272618702244_" d="M59.99,666.59v-614h601v614H59.99z M637.66,595.45
					v-2.22v-98.05H83.17v100.26H637.66z"/>
			</defs>
			<clipPath id="SVGID_00000170280357616471131940000000249969078780139949_">
				<use xlink:href="#SVGID_00000006693483750656455580000002853913272618702244_"  style="overflow:visible;"/>
			</clipPath>
			<path style="clip-path:url(#SVGID_00000170280357616471131940000000249969078780139949_);fill:#D4D3C8;" d="M260.52,280.25
				c-0.42,0.02-0.65,0.01-0.65,0.01S260.08,280.26,260.52,280.25c1.81-0.06,7.39-0.55,15.38-3.81c1.97-1.22,4.61-3.11,6.27-5.32
				c-11.21,3.6-20.22,1.52-20.22,1.52l1.23,2.28c0.31-0.07,0.63-0.13,0.94-0.2c-0.31,0.07-0.62,0.13-0.94,0.2l0.57,1.04
				c0,0-9.79,6.69-39.51,3.37c31.57,4.25,55.4,2.59,55.4,2.59l-0.53,1.98c5.69-1.95,11.34-4.22,13.08-6.04
				C272.32,279.89,262.93,280.2,260.52,280.25"/>
			<path style="clip-path:url(#SVGID_00000170280357616471131940000000249969078780139949_);fill:#ECEEE2;" d="M412.95,378.86
				c-0.92,3.88,8.49,13.29,24,36.93c-6.65-10.34-30.65-33.61-32.5-33.42c-1.84,0.19,15.88,38.59,15.88,38.59
				s-16.99-32.31-19.2-31.57c-2.21,0.74,9.97,39.33,9.97,39.33s-9.79-28.62-12.56-28.99c-2.77-0.37-5.72,11.82-2.95,20.31
				c1.87,5.73,5.33,16.82,7.38,23.44c-2.05-13.12-3.71-23.62-2.77-23.62c2.03,0,11.08,15.33,12.74,14.59
				c1.66-0.74-3.88-25.3-2.4-25.48c1.48-0.19,38.77,88.08,38.77,88.08s-30.88-93.52-28.11-94.49c2.77-0.97,59.13,77.69,59.13,77.69
				s-52.76-81.98-57.06-89.88c-4.29-7.9-6.51-15.24-0.83-18.7c5.68-3.46,13.71-1.39,21.05,5.26c-1.25-3.19-5.82-10.39-5.82-10.39
				v-1.05C426.42,358.59,413.78,375.37,412.95,378.86"/>
			<g id="Off_White_2" style="clip-path:url(#SVGID_00000170280357616471131940000000249969078780139949_);">
				<path class="st10" d="M364.57,495.74c0-12.19-17.45-73.67-20.5-85.03c-3.05-11.36-10.25-20.5-16.89-26.59
					c-6.65-6.09-11.91-16.9-11.91-16.9s1.66,8.86,13.02,25.76c11.36,16.9,14.68,37.67,22.71,65.37
					c8.03,27.69,7.75,45.98,13.02,46.25c1.99,0.1,4.13-5.4,6.26-13.25c-1.77,4.17-2.93,6.6-2.93,6.6s1.16-2.43,2.93-6.6
					c2.08-7.68,4.14-17.62,6.01-26.73C373.5,471.48,369.09,482.7,364.57,495.74"/>
				<path class="st10" d="M412.03,369.26c2.55,0.64,13.48-8.35,16.43-10.82c-0.69-0.08-2.3-0.29-6.09-0.76
					C419.53,360.05,409.48,368.62,412.03,369.26"/>
				<path class="st10" d="M411.84,355.04c5.17-8.31,17.96-16.48,17.96-16.48l-3.46-4.02C426.34,334.55,413.87,342.3,411.84,355.04"
					/>
			</g>
			<g id="Beak" style="clip-path:url(#SVGID_00000170280357616471131940000000249969078780139949_);">
				<path id="Blue_Gray_Dark" class="st11" d="M328.56,328.64c0,0-1.16-17.99-4.51-22.97c1.74-2.45,3.84-5.43,6.09-8.65
					L328.56,328.64z M391.97,286.86c-3.48-4.12-7.95-9.43-11.71-13.98v0.92v-0.92c-0.52-0.64-1.03-1.25-1.52-1.85
					c1.56,10.7,16.29,34.71,16.29,34.71L391.97,286.86z M323.21,355.78c-8.32-10.55-10.39-21.4-10.91-26.15
					c-0.48,2.18-0.81,4.45-0.91,6.76c-0.56,12.74,6.09,24.37,15.88,33.05c9.79,8.68,8.31,16.81,8.31,16.81s9.32,13.39,15.14,35.82
					c1.32,5.11,2.8,10.67,4.33,16.21c-0.64-7.69-2.43-25.21-6.36-38.37C343.52,382.56,334.29,369.81,323.21,355.78"/>
				<path id="Blue_Gray_Light" class="st12" d="M395.04,305.74c0,0-14.74-24.02-16.29-34.71c-2.66-3.26-4.8-5.94-5.68-7.2
					c-3.32-4.8-11.45-6.46-18.28-2.4c-6.83,4.06-8.86,26.41-8.86,26.41v-12c0,0-5.72,6.65-12.74,16.8
					c-1.03,1.49-2.05,2.96-3.04,4.38l-1.57,31.63c0,0-1.16-17.99-4.51-22.97c-0.96,1.35-1.8,2.54-2.5,3.51
					c0.14-0.07,0.22-0.11,0.22-0.11s-0.08,0.04-0.22,0.11c-1.27,1.78-2.04,2.84-2.04,2.84s-0.35,0.54-0.9,1.5
					c1.32-1.03,2.2-1.55,2.2-1.55s-0.88,0.52-2.2,1.55c-1.55,2.72-4.73,8.86-6.31,16.11c0.52,4.75,2.58,15.6,10.91,26.15
					c11.08,14.03,20.31,26.77,25.48,44.13c3.92,13.16,5.72,30.67,6.36,38.37c5.17,18.84,10.8,37.52,12.29,37.52
					c1.94,0,10.52-34.62,14.12-52.35c3.6-17.72,9.69-30.74,9.69-30.74s-7.2,37.67-11.36,55.39c-1.05,4.47-2.24,10.31-3.52,16.52
					c1.83-4.49,2.96-7.11,2.96-7.11s-1.13,2.61-2.96,7.11c-1.87,9.11-3.93,19.04-6.01,26.72c4.03-9.5,11.22-28.05,15.07-47.68
					c5.54-28.25,7.2-40.16,11.91-53.73c4.71-13.57,10.25-26.03,10.25-45.7c0-19.54-0.29-35.26-10.08-50.95
					c-0.81-0.95-2.85-3.35-5.45-6.43L395.04,305.74z"/>
				<path class="st13" d="M365.68,454.2c0,0-10.34-132.76-11.26-155.29c-0.92-22.53-0.18-32.31,7.2-33.05
					c7.38-0.74,7.94,10.71,7.94,22.53C369.56,300.2,370.94,414.31,365.68,454.2"/>
			</g>
			<g id="Off_White_4" style="clip-path:url(#SVGID_00000170280357616471131940000000249969078780139949_);">
				<path class="st14" d="M437,299.92c-4.29-1.52-7.06-3.05-7.06-3.05l-9.79-6.09l9.41,12.56l-16.25-12l-3.42,24.39l-0.18,5.53
					l5.82-3.05l-2.22,5.54l2.21-0.86c1.12-2.46,3.94-7.49,8.13-7.36c-6.1-5.54,1.29-9.6,7.57-7.02c6.27,2.59,9.04,7.57,9.04,7.57
					l2.18-1.14l-7.82-12.39c0,0,11.63,5.4,13.02,3.88c0.18-0.2,0.2-0.43,0.1-0.69l-3.42-0.93l3.42,0.93
					C447.08,304.04,440.73,301.25,437,299.92"/>
				<path class="st14" d="M289.23,287.83c-0.25-0.05-0.72-0.06-1.27-0.05l-12.74,5.17l-2.05,2.44
					C273.17,295.4,290.16,288.02,289.23,287.83"/>
				<path class="st14" d="M321.55,309.18c-1.11,0.53-6.11,2.8-6.98,0.58c-0.97-2.49,2.35-12.33,2.77-21.33
					c0.42-9,0.42-16.62,4.71-21.88c4.29-5.26,2.77-12.74-0.83-11.49c-1.37,0.48-4.15,2.42-7.48,5.13
					c0.01,3.86,0.04,16.01,0.28,27.14c0.28,13.43-13.3,14.4-24.51,20.08c-11.21,5.68-10.52,14.12-4.85,20.91
					c-5.81-3.74-17.59-6.23-17.59-6.23s0.95,0.63,2.53,1.67l3.84,1.38l-3.84-1.38c8.16,5.37,33.48,21.81,35.69,20.77
					c2.63-1.25-12.47-15.65-12.47-15.65s8.31,4.43,14.27,5.12c1.01-10.86,7.91-17.63,11.51-20.47c0.55-0.96,0.9-1.5,0.9-1.5
					S320.28,310.95,321.55,309.18"/>
			</g>
			<g id="Off_White" style="clip-path:url(#SVGID_00000170280357616471131940000000249969078780139949_);">
				<path class="st15" d="M530.01,225.24l8.5-5.73l-0.45-3.03c-4.63,2.72-9.77,5.89-14.66,9.23L530.01,225.24z"/>
				<polygon class="st15" points="524.29,213.6 540.35,207.32 537.4,202.34 538.14,201.89 536.48,201.97 				"/>
				<path class="st15" d="M512.84,206.22l3.88-2.03c0,0-10.71,11.45-10.34,23.08c10.34-17.36,13.29-25.12,21.6-27.88l-3.51,4.25
					l11.39-4.62c-2.92-2.57-6.57-5.16-8.18-6.27C524.95,194.29,517.32,199.04,512.84,206.22"/>
				<path class="st15" d="M387.55,447.34l4.54,10.92l4.8-9.42c0,0,4.06,8.31,11.26,38.04c0-7.6-1.62-19.97-3.42-32.03
					c-5.32-16.31-13.38-26.32-13.38-26.32L387.55,447.34z"/>
				<path class="st15" d="M342.6,440.9c-1.66,0.19-9.41,32.5-9.41,32.5s3.69-24,6.28-34.72c2.59-10.71-2.22-21.61-4.25-21.61
					c-2.03,0-7.76,28.62-7.76,28.62s3.14-22.16,4.62-28.99c1.48-6.83-3.14-18.65-6.83-17.91c-3.69,0.74-27.14,40.44-36.74,58.72
					c7.57-21.6,28.07-54.29,32.13-58.72c4.06-4.43-0.37-6.28-6.83-13.11c-6.46-6.83-9.41-7.57-13.66-8.68
					c-3.31-0.86-11.45-10.14-14.87-14.19c-1.71-0.98-3.53-1.88-5.44-2.61c-11.63-4.43-13.3,3.69-10.34,11.08
					c2.95,7.39-22.71,26.78-22.71,26.78s19.76-11.45,35.64-17.36c15.88-5.91,19.75-0.92,15.51,8.12
					c-4.25,9.05-23.08,32.31-23.08,32.31s26.22-27.7,31.94-26.4c5.72,1.29-19.76,28.06-18.65,28.06c1.11,0,5.17-6.65,12.37-13.48
					c7.2-6.83,13.48-15.14,15.88-10.9s-11.36,12-24.65,36.65c-13.29,24.65-25.39,66.75-25.39,66.75s5.91-13.29,14.59-28.62
					c8.68-15.33,16.8-14.77,14.03,3.32c8.12-10.89,10.15-3.51,12,10.71c11.45-51.88,17.72-35.64,16.8-13.66
					c9.41-30.1,10.34-15.7,9.23-6.28c-1.11,9.42-2.95,33.24-2.95,33.24l6.83-31.39l1.48,11.45c0,0,2.03-23.82,2.95-23.45
					c0.92,0.37,6.28,14.03,6.28,14.03l0.56-3.69l3.51,1.11C351.65,468.6,344.26,440.72,342.6,440.9"/>
				<path class="st15" d="M431.23,308.51c-6.28-2.58-13.66,1.48-7.57,7.02c-4.19-0.14-7.01,4.9-8.13,7.36l7.76-3.02
					c0,0-10.8,9.7-10.8,11.36c0,1.66,11.36-9.69,23.82-11.63c-17.17,10.25-23.26,18.83-23.26,18.83s17.54-12.28,36.42-14.26
					c0,0,2.22-2.49,0.97-5.82s-7.75-3.05-7.75-3.05l-0.22-0.35l-2.18,1.13C440.28,316.08,437.5,311.1,431.23,308.51"/>
				<polygon class="st15" points="283.33,426.87 285.54,428.16 246.95,477.46 				"/>
				<path class="st15" d="M426.43,474.51c0,0-11.82-32.87-9.6-32.68C419.04,442.01,426.43,474.51,426.43,474.51"/>
			</g>
			<path style="clip-path:url(#SVGID_00000170280357616471131940000000249969078780139949_);" d="M279.97,287.84
				c1.12-0.41,2.51-0.98,4.07-1.73c-1.25,0.23-2.01,0.38-2.01,0.38s0.75-0.14,2.01-0.38c3.92-1.88,8.83-4.91,12.67-9.46
				c4.72-5.58,11.61-12.05,17.04-16.47c0-0.8,0-1.25,0-1.25s0,0.45,0,1.25c3.33-2.71,6.11-4.66,7.48-5.13
				c3.6-1.24,5.12,6.23,0.83,11.49c-4.29,5.26-4.29,12.88-4.71,21.88c-0.41,9-3.74,18.83-2.77,21.33c0.86,2.22,5.87-0.05,6.98-0.58
				c0.69-0.97,1.53-2.15,2.49-3.51c-0.43-0.64-0.89-1.07-1.39-1.22c0.5,0.15,0.96,0.58,1.39,1.22c1.74-2.45,3.84-5.43,6.09-8.65
				l0.09-1.8l-0.09,1.8c0.99-1.42,2.01-2.89,3.04-4.38c7.02-10.16,12.74-16.8,12.74-16.8v12c0,0,2.03-22.34,8.86-26.41
				c6.83-4.06,14.96-2.4,18.28,2.4c0.88,1.26,3.02,3.95,5.68,7.2c-0.08-0.59-0.14-1.16-0.14-1.66c0,0.5,0.06,1.07,0.14,1.66
				c0.49,0.6,1,1.22,1.52,1.85v-2.41c0,0-5.17-14.59-18.09-13.48c-12.93,1.11-13.02,8.4-14.87,13.29c-1.85,4.9-3.78,6.37-4.71,6.1
				c-0.93-0.28-1.11-11.54-4.06-12.46c-2.95-0.93-10.43,4.89-11.72,16.71c2.77-4.06,9.41-2.4,7.2,5.17
				c-2.22,7.57-5.91,12.46-11.17,10.89c-4.94-1.47-2.48-21.5,3.19-30.66c2.18-5.15,3.56-10.46-0.38-12.77
				c-4.71-2.77-12.05-0.51-26.82,8.91c-8.71,7.33-16.57,11.68-22.93,14.28c-1.49,0.92-2.59,1.46-2.59,1.46s1.11-0.54,2.59-1.46
				c-7.99,3.26-13.57,3.74-15.38,3.81c2.4-0.05,11.8-0.36,31.67-2.39c-1.74,1.83-7.39,4.09-13.08,6.04l-0.21,0.79l0.21-0.79
				c-2.43,0.83-4.87,1.6-7.03,2.26l1.09,0.01l-1.09-0.01c-4.03,1.23-7.03,2.04-7.03,2.04L279.97,287.84z"/>
			<path style="clip-path:url(#SVGID_00000170280357616471131940000000249969078780139949_);" d="M436.3,319.59
				c-12.46,1.94-23.82,13.29-23.82,11.63c0-1.66,10.81-11.35,10.81-11.35l-7.76,3.02c-0.36,0.79-0.55,1.32-0.55,1.32
				s0.19-0.53,0.55-1.32l-2.21,0.86l2.22-5.54l-5.82,3.05l0.18-5.53l-1.01,7.19c0,0-0.18-9.05-2.4-21.05
				c-0.19-1.06-0.38-2.11-0.56-3.16c-3.55-4.79-8.67-5.7-8.67-5.7c0.06,0.1,0.11,0.19,0.17,0.29c0.24,0.28,0.38,0.45,0.38,0.45
				s-0.14-0.17-0.38-0.45c9.79,15.69,10.08,31.4,10.08,50.95c0,19.67-5.54,32.13-10.25,45.7c-4.71,13.57-6.37,25.48-11.91,53.74
				c-3.85,19.63-11.04,38.18-15.07,47.68c-2.12,7.85-4.27,13.36-6.26,13.25c-5.26-0.28-4.99-18.56-13.02-46.25
				c-8.03-27.7-11.36-48.47-22.71-65.37c-11.36-16.9-13.02-25.76-13.02-25.76s5.26,10.8,11.91,16.9
				c6.65,6.09,13.84,15.23,16.89,26.59c3.05,11.36,20.5,72.84,20.5,85.03c4.51-13.05,8.93-24.27,11.72-31.12
				c1.28-6.21,2.47-12.05,3.52-16.52c4.16-17.72,11.36-55.39,11.36-55.39s-6.09,13.02-9.69,30.74
				c-3.6,17.73-12.19,52.35-14.12,52.35c-1.5,0-7.13-18.68-12.29-37.52c0.2,2.45,0.29,3.92,0.29,3.92s-0.09-1.46-0.29-3.92
				c-1.52-5.55-3-11.11-4.33-16.21c-5.82-22.43-15.14-35.82-15.14-35.82s1.48-8.12-8.31-16.8c-9.79-8.68-16.44-20.31-15.88-33.05
				c0.1-2.31,0.43-4.58,0.91-6.76c-0.17-1.57-0.17-2.47-0.17-2.47s0,0.9,0.17,2.47c1.58-7.25,4.76-13.39,6.31-16.11
				c-3.61,2.84-10.5,9.6-11.52,20.47c-5.95-0.69-14.27-5.12-14.27-5.12s15.1,14.4,12.47,15.65c-2.21,1.04-27.53-15.4-35.69-20.77
				l-3.5-1.25l30.88-22.02c0,0,7.06-1.66,11.49-4.71c4.43-3.05-0.83-9.14-0.83-9.14s3.46-4.71,3.32-5.12
				c-0.12-0.35-20.41,3.4-26.94,4.61c-1.56,0.75-2.96,1.32-4.07,1.73l8.35-0.2l-0.35,0.14c0.55-0.01,1.01-0.01,1.27,0.05
				c0.92,0.19-16.06,7.57-16.06,7.57l2.05-2.44l-38.8,15.74l54.1-15.7l-32.31,14.66l7.39-2.84l-7.39,2.84l-3.51,1.59l22.83-7.67
				c-1.91,0.43-3.44,0.84-3.44,0.84s1.53-0.41,3.44-0.84l22.78-7.65c0,0-29.73,19.39-37.85,22.9c-8.12,3.51-36.38,5.54-36.38,5.54
				l40.81,3.32c0,0,19.02,11.45,29.73,19.2c10.71,7.76,13.85,14.59,11.82,24.19c-9.97-17.36-33.61-30.28-33.61-30.28
				s14.77,10.34,19.57,18.28c-21.6-14.59-50.04-20.31-68.69-21.97c27.69,5.72,52.44,13.85,52.81,15.33
				c0.37,1.48-36.93-1.48-36.93-1.48s5.91,4.25,40.25,4.43c16.25,5.54,24.18,18.28,24.18,18.28l-7.94-5.35c0,0,4.99,6.83,3.32,7.94
				c-1.39,0.93-7.43-6.4-16.16-11.43c3.42,4.05,11.56,13.33,14.87,14.19c4.25,1.11,7.2,1.85,13.66,8.68
				c6.46,6.83,10.9,8.68,6.83,13.11s-24.56,37.11-32.13,58.72c9.6-18.28,33.05-57.98,36.74-58.72c3.69-0.74,8.31,11.08,6.83,17.91
				c-1.48,6.83-4.62,28.99-4.62,28.99s5.73-28.62,7.76-28.62c2.03,0,6.83,10.89,4.25,21.6c-2.59,10.71-6.28,34.72-6.28,34.72
				s7.75-32.31,9.41-32.5c1.66-0.19,9.05,27.7,9.05,27.7s5.72,22.16,7.2,31.94c1.48,9.79,6.46,9.23,10.71-0.19
				c4.25-9.42,17.54-54.1,17.54-54.1l0.45,1.08l3.8-18.81c0,0,8.05,10.01,13.38,26.32c-0.58-3.88-1.18-7.73-1.75-11.37
				c-2.06-6.63-5.51-17.71-7.38-23.44c-2.77-8.49,0.19-20.68,2.95-20.31c2.77,0.37,12.56,28.99,12.56,28.99s-12.19-38.59-9.97-39.33
				c2.22-0.74,19.2,31.58,19.2,31.58s-17.72-38.41-15.88-38.59c1.85-0.19,25.85,23.08,32.5,33.42c-15.51-23.63-24.93-33.05-24-36.93
				c0.83-3.49,13.47-20.27,24.74-13.38v-14.46l-8.72,7.48c0,0-0.01,0-0.51-0.06c-2.95,2.48-13.88,11.46-16.43,10.82
				c-2.55-0.64,7.51-9.21,10.35-11.58c-0.02,0-0.04,0-0.05-0.01c9.97-8.03,26.87-15.23,45.7-20.08c-24.65,1.8-45.7,16.76-45.7,16.76
				s1.8-4.85,22.43-14.96c-12.46,2.49-22.43,10.8-22.43,10.8s3.88-8.03,17.31-16.34c-4.15,1.66-9.83,4.71-9.83,4.71
				s-12.79,8.17-17.96,16.48c2.03-12.74,14.49-20.5,14.49-20.5c10.66-7.06,30.88-10.25,36.7-11.49c-8.86-0.69-13.57,1.11-13.57,1.11
				c-18.88,1.98-36.42,14.27-36.42,14.27S419.13,329.84,436.3,319.59"/>
			<path style="clip-path:url(#SVGID_00000170280357616471131940000000249969078780139949_);" d="M384.7,263.83l-1.94-4.71
				c0,0,7.57,0.83,9.6,6.19c2.03,5.36,3.6,17.36,3.6,17.36l-2.86-1.11l0.74,5.08c0,0-4.81-4.99-8.59-10.89
				c-3.79-5.91-5.63-16.43-5.63-16.43l3.78,4.8L384.7,263.83z"/>
			<path style="clip-path:url(#SVGID_00000170280357616471131940000000249969078780139949_);fill:#504845;" d="M487.16,254.02
				c8.86,1.11,28.99-12.48,38.24-19.14c-2.78,1.87-6.72,4.28-11.82,6.78c-7.78,3.83-14.88,7.36-18.31,9.07
				c0.96-0.14,2.02-0.28,3.18-0.39C495.02,252.25,491.06,253.39,487.16,254.02"/>
			<path style="clip-path:url(#SVGID_00000170280357616471131940000000249969078780139949_);fill:#504845;" d="M462.06,257.73
				c0,0,4.43,3.69,15.33,3.69c-9.23,3.88-21.05-2.59-21.05-2.59l3.83,5.65c3.02,1.98,6.07,3.97,5.59,3.59
				c-0.93-0.74-1.29-3.69-1.29-3.69s1.66,2.4,22.34,1.11c20.68-1.29,38.96-4.06,38.96-4.06l-43.2,1.48l32.86-11.45
				c0,0-45.45,11.53-49.9,3.85C463.33,256.36,462.06,257.73,462.06,257.73"/>
			<path style="clip-path:url(#SVGID_00000170280357616471131940000000249969078780139949_);fill:#504845;" d="M429.38,273.61
				c-0.18,1.85,3.32,4.61,3.32,4.61s-7.38,0.92-6.83,1.48c0.56,0.55,9.6,6.46,9.6,6.46s-6.83-0.37-7.02,1.29
				c-0.19,1.66,17.54,14.77,21.42,16.25c3.87,1.48,26.22,2.58,26.22,2.58s0.12,0.14,0.33,0.35c2.24-1.67,8.37-3.77,24.97-0.9
				c-4.43-2.77-24.38-3.88-41.73-3.88c-17.36,0-20.68-7.75-26.4-14.03c13.11,2.4,66.1,3.14,66.1,3.14s-27.7-1.66-44.69-3.14
				c-16.99-1.48-24.19-7.94-24.19-7.94s6.46,1.48,20.87-1.11c-11.58-0.65-16.73-3.86-18.78-5.71
				C430.63,273.13,429.41,273.29,429.38,273.61"/>
			<path style="clip-path:url(#SVGID_00000170280357616471131940000000249969078780139949_);fill:#504845;" d="M447.23,273.57
				c5.06,1.13,22.83,4.82,37.55,4.66c17.36-0.18,35.08-12.19,35.08-12.19s-9.23,5.73-27.33,6.28c-14.74,0.45-31.57,0.29-37.3,0.22
				c6.62,1.44,12.74,2.56,12.74,2.56S457.34,274.17,447.23,273.57"/>
			<g style="clip-path:url(#SVGID_00000170280357616471131940000000249969078780139949_);">
				<defs>
					<rect id="SVGID_00000107555934872200684690000009202585780489552288_" x="175.26" y="159.22" width="136.1" height="117.16"/>
				</defs>
				<clipPath id="SVGID_00000080178961564857550680000004229307816433289378_">
					<use xlink:href="#SVGID_00000107555934872200684690000009202585780489552288_"  style="overflow:visible;"/>
				</clipPath>
				<g style="clip-path:url(#SVGID_00000080178961564857550680000004229307816433289378_);">
					<g id="Off_White_3_00000182494058658111754710000008855140958969343630_">
						<path class="st2" d="M423.84,234.1c17-12.41,57.96-43.77,64.34-48.66c-0.97-1.42-1.76-2.89-2.02-4.16
							c-1.47,1.13-4.22,3.27-9.42,7.3c-11.08,8.59-49.3,35.73-62.87,46.81c-8.96,7.32-17.08,7.75-21.56,7.19
							c1.39,1.28,2.99,2.5,4.9,3.55C402.04,245.54,411.44,243.15,423.84,234.1"/>
						<path class="st2" d="M338.54,239.64c3.45-2.89,7.02-3.84,9.33-4.13c3.13-1.85,6.12-3.31,6.74-3.62
							c0.22-0.11,0.72-0.67,1.38-1.51c-2.53-0.21-7.89-0.08-14.49,3.36c-9.23,4.8-13.29,2.58-18.09,0.37
							c-4.8-2.22-81.06-58.35-81.06-58.35l37.47,30.37c12.37,9.53,35.98,27.79,39.9,31.3C325.06,242.22,332.81,244.44,338.54,239.64
							"/>
						<path class="st2" d="M507.36,170.08l-3.48,2.16l23.82-25.2l-36.86,31.25c2.01,0.03,4.37,0.35,6.53,0.79L507.36,170.08z"/>
						<g id="Off_White_3">
							<path class="st2" d="M284.62,288.02c0,0,1.93-0.19,3.35-0.23l0.35-0.14l-8.35,0.2c-1.62,0.6-2.64,0.86-2.64,0.86
								s1.02-0.26,2.64-0.86l-14.92,0.35c0,0,3.01-0.81,7.03-2.04l-28.82-0.18l33.79,4.8l-1.82,2.17l12.74-5.17
								C286.55,287.82,284.62,288.02,284.62,288.02"/>
							<path class="st2" d="M258.21,307.66L244,313.13c0,0,29.91-8.49,30.28-7.2c0.37,1.29-9.97,7.57-9.97,7.57
								s21.24-11.27,20.68-12.56c-0.34-0.8-4.39-0.05-7.45,0.64l-22.83,7.67L258.21,307.66z"/>
						</g>
					</g>
					<path d="M480.9,248.32c13.48-9.42,9.79-19.94,9.79-19.94s4.24,2.59,5.17,6.09c0.92-6.65-0.19-14.96-0.19-14.96
						s9.78-0.55,11.63-9.42c1.84-8.86,7.39-11.26,12.55-14.59c5.17-3.32,11.27-6.28,11.27-6.28s-18.65,4.25-20.13,0.92
						c-1.48-3.32,21.79-17.91,21.79-17.91s-26.03,9.79-29.91,8.31c-1.21-0.46-3.25-1.03-5.5-1.48l-0.41,0.37l0.41-0.37
						c-2.17-0.43-4.53-0.76-6.53-0.78l-1.36,1.15l1.36-1.15c-2.62-0.04-4.63,0.45-4.77,1.89c-0.03,0.34,0.01,0.71,0.1,1.1l1.66-1.29
						l-1.66,1.29c0.26,1.27,1.05,2.74,2.02,4.16c0.55-0.42,0.84-0.65,0.84-0.65s-0.3,0.23-0.84,0.65c1.95,2.86,4.53,5.45,4.53,5.45
						l-9.97,2.77l6.09,1.11c0,0-11.53,9.22-12.5,9.58c0.65-0.07,4.56-0.35,4.56-0.35s-16.8,13.29-29.73,14.22l8.49,2.95
						c0,0-13.66,9.23-27.51,10.71l1.66,5.36c0,0-15.7,13.66-28.43,11.63c-3.22-0.51-5.9-1.5-8.17-2.74
						c-2.37,0.29-3.65,0.15-3.65,0.15s1.28,0.14,3.65-0.15c-1.91-1.04-3.51-2.26-4.9-3.55c-2.3-0.28-3.64-0.83-3.64-0.83
						s1.34,0.54,3.64,0.83c-3.5-3.22-5.56-6.79-7.24-8.67c-3.14-3.51-7.94-2.77-7.94-2.77L369,203.26l-0.92,10.52l-2.03-4.43
						l-0.37,4.99c0,0-9.79,0.37-15.51,9.97c7.94-7.94,13.85-5.17,13.85-5.17s-5.35,7.85-8.04,11.23c1.01,0.08,1.57,0.22,1.57,0.22
						s-0.57-0.13-1.57-0.22c-0.66,0.83-1.16,1.4-1.38,1.51c-0.62,0.31-3.61,1.78-6.74,3.62c1.52-0.2,2.49-0.11,2.49-0.11
						s-0.97-0.08-2.49,0.11c-2.47,1.45-5.01,3.14-6.56,4.69c-3.51,3.51-10.34,7.94-13.29,6.83s-24.93-15.14-24.93-15.14
						s-1.66-6.83-5.54-7.02c-3.88-0.19-17.36-0.92-17.36-0.92l10.16-4.8c0,0-25.85,0.74-18.65-7.94c-9.05,0.55-12.74,0.74-12.74-2.4
						c0-3.14,12.01-5.17,12.01-5.17s-12.93-1.48-17.54-4.43c-4.61-2.95-6.1-7.57-9.6-6.65c-3.51,0.92-5.54,2.22-7.94,0.74
						c-2.4-1.48-8.49-5.91-8.49-5.91l3.69,6.09l-13.48-11.08l24,31.76l-16.62-13.85l5.72,8.68l-28.62-22.9l30.83,30.84l-24-17.73
						c0,0,20.5,26.59,39.7,42.28c19.2,15.69,39.88,24.37,56.32,14.59c16.43-9.79,21.6-5.17,26.78-2.22
						c4.24-6.65,16.8-17.17,24.19-17.17c6.83-6.16,17.39-5.84,23.05,0.9c4.82,1.93,8.51,5.16,11.43,9.07
						c3.66,3.53,10.36,9.27,15.92,10.16c8.13,1.29,18.65,0.18,18.47,2.77c-0.19,2.58-3.32,4.99-2.77,9.05
						c0.56,4.06,2.95,7.02,2.95,7.02l-5.36,1.11l7.94,6.65c0,0-3.51,6.65,3.14,13.85c-6.65-7.2-3.14-13.85-3.14-13.85l-7.94-6.65
						l5.36-1.11c0,0-2.4-2.95-2.95-7.02c-0.56-4.06,2.58-6.46,2.77-9.05c0.18-2.59-10.34-1.48-18.47-2.77
						c-5.57-0.89-12.26-6.63-15.92-10.16c3.83,5.14,6.3,11.46,8.17,17.54c4.04,13.13,5.47,23.66,7.37,34.51
						c0.82,1.11,1.56,2.42,2.13,3.99c-0.57-1.56-1.31-2.88-2.13-3.99c0.19,1.05,0.37,2.1,0.57,3.16c2.22,12,2.4,21.05,2.4,21.05
						l1.01-7.19l0.1-3.06l-0.1,3.06l3.42-24.38l16.25,12l-9.41-12.55l9.79,6.09c0,0,2.77,1.52,7.06,3.05
						c3.74,1.32,10.08,4.11,10.76,5.82l9.51,2.58l-5.91,4.43c0,0,18.28-4.99,21.78-3.69c-10.34,4.25-14.4,7.76-14.4,7.76
						s17.91-4.8,21.24-1.48c-7.2,0.74-8.49,8.31-8.49,8.31l2.59-2.03l1.85,2.95c0,0,2.77-6.83,7.02-6.28
						c4.25,0.56,9.41-1.29,8.31-4.06c5.73-1.66,20.31-0.19,20.31-0.19s-11.45-3.88-21.24-3.14c-8.28,0.62-12.72-3.11-13.89-4.27
						c-1.07,0.8-1.25,1.5-1.25,1.5s0.18-0.7,1.25-1.5c-0.21-0.21-0.33-0.35-0.33-0.35s-22.35-1.11-26.22-2.58
						c-3.88-1.48-21.61-14.59-21.42-16.25c0.19-1.66,7.02-1.29,7.02-1.29s-9.05-5.91-9.6-6.46c-0.55-0.55,6.83-1.48,6.83-1.48
						s-3.51-2.77-3.32-4.62c0.03-0.32,1.25-0.48,3.2-0.54c-0.86-0.77-1.17-1.31-1.17-1.31s0.31,0.53,1.17,1.31
						c3.35-0.09,8.91,0.15,14.65,0.49c-0.91-0.2-1.42-0.32-1.42-0.32s0.51,0.12,1.42,0.32c10.11,0.6,20.74,1.52,20.74,1.52
						s-6.12-1.12-12.74-2.56c-1.3-0.02-2.03-0.03-2.03-0.03s0.73,0.02,2.03,0.03c-5.12-1.11-10.53-2.41-13.67-3.54
						c-7.2-2.59-5.17-11.63,2.4-9.79c7.57,1.85,16.25,5.36,16.25,5.36l-0.05-0.08c-2.76-1.81-5.49-3.61-5.49-3.61
						s2.73,1.8,5.49,3.61l-3.83-5.65c0,0,11.82,6.46,21.05,2.58c-10.9,0-15.33-3.69-15.33-3.69s1.26-1.37,3.46-2.43
						c-0.16-0.27-0.27-0.57-0.32-0.89c0.05,0.32,0.16,0.62,0.32,0.89c1.75-0.84,4.1-1.49,6.88-1.08c3.69,0.54,9.18,0.69,14.75-0.21
						c-0.32-0.04-0.62-0.08-0.9-0.16c0.28,0.08,0.59,0.12,0.9,0.16c3.9-0.63,7.86-1.77,11.28-3.67c-1.15,0.11-2.21,0.25-3.17,0.39
						c-1.38,0.69-2.19,1.09-2.19,1.09s0.81-0.4,2.19-1.09c-3.82,0.57-6.06,1.27-6.06,1.27l5.36-11.26
						C494.56,240.75,482.01,248.32,480.9,248.32"/>
					<path class="st18" d="M397.21,246.13c2.27,1.24,4.95,2.22,8.17,2.74c12.74,2.03,28.43-11.63,28.43-11.63l-1.66-5.36
						c13.85-1.48,27.51-10.71,27.51-10.71l-8.5-2.95C464.1,217.3,480.9,204,480.9,204s-3.91,0.28-4.56,0.35
						c-0.02,0.01-0.04,0.02-0.05,0.02c-0.07,0-0.05-0.01,0.05-0.02c0.97-0.36,12.5-9.59,12.5-9.59l-6.09-1.11l9.97-2.77
						c0,0-2.58-2.59-4.53-5.45c-6.38,4.88-47.34,36.24-64.34,48.66C411.44,243.15,402.04,245.54,397.21,246.13"/>
					<path class="st19" d="M545.9,205.29l-5.54,2.03l-16.06,6.28l12.19-11.63l1.66-0.08l9.6-5.83l-11.45,3.32
						c-0.14-0.13-0.29-0.25-0.42-0.38l-11.39,4.62l3.51-4.25c-8.31,2.77-11.27,10.52-21.6,27.88
						c-0.37-11.63,10.34-23.08,10.34-23.08l-3.87,2.03c4.48-7.17,12.1-11.92,14.85-13.48c-0.51-0.35-0.82-0.56-0.82-0.56l24.65-10.8
						l-21.6,4.15l7.2-7.2c0,0-11.63,4.43-13.29,3.32c-1.66-1.11,33.51-25.76,33.51-25.76l-22.43,8.58l4.99-6.65
						c0,0-32.13,21.05-32.96,21.05c-0.83,0,23.27-22.99,23.27-22.99l-22.84,14.18l-9.99,8.99c2.25,0.45,4.3,1.02,5.5,1.48
						c3.87,1.48,29.91-8.31,29.91-8.31s-23.26,14.59-21.79,17.91c1.48,3.32,20.13-0.93,20.13-0.93s-6.1,2.96-11.27,6.28
						c-5.17,3.32-10.71,5.73-12.55,14.59c-1.85,8.86-11.63,9.41-11.63,9.41s1.11,8.31,0.19,14.96c-0.92-3.51-5.17-6.09-5.17-6.09
						s3.69,10.52-9.79,19.94c1.11,0,13.66-7.57,13.66-7.57l-5.36,11.26c0,0,10.16-7.38,25.11-19.57c2.78-2.26,5.87-4.53,9.08-6.72
						l-3.54,0.26l3.54-0.26c4.89-3.34,10.03-6.52,14.66-9.23l-0.29-1.96l0.29,1.96c0.43-0.25,0.84-0.49,1.26-0.74l-1.18-3.81
						L545.9,205.29z"/>
				</g>
			</g>
			<path style="clip-path:url(#SVGID_00000170280357616471131940000000249969078780139949_);fill:#524A47;" d="M284.66,328.31
				c-5.68-6.78-6.37-15.23,4.85-20.91c11.22-5.68,24.79-6.65,24.51-20.08c-0.23-11.12-0.27-23.28-0.28-27.14
				c-5.42,4.42-12.32,10.9-17.04,16.47c-3.85,4.55-8.76,7.57-12.67,9.46c6.53-1.21,26.82-4.96,26.94-4.61
				c0.14,0.42-3.32,5.12-3.32,5.12s5.26,6.09,0.83,9.14c-4.43,3.04-11.49,4.71-11.49,4.71l-30.88,22.02l3.5,1.25
				c-1.58-1.04-2.53-1.67-2.53-1.67S278.85,324.58,284.66,328.31"/>
			<path style="clip-path:url(#SVGID_00000170280357616471131940000000249969078780139949_);fill:#504845;" d="M282.17,271.12
				c-1.66,2.21-4.3,4.1-6.27,5.32c6.36-2.6,14.23-6.95,22.93-14.28c14.78-9.42,22.12-11.68,26.82-8.91
				c3.93,2.31,2.55,7.62,0.38,12.78c0.37-0.6,0.75-1.15,1.15-1.65l4.99-7.57l-4.99,7.57c-0.4,0.5-0.78,1.05-1.15,1.65
				c-0.43,1.02-0.89,2.03-1.34,3.01c3.74-5.82,19.2-31.62,40.44-33.28c5.43-0.43,9.98,0.29,13.82,1.83
				c-5.67-6.75-16.23-7.06-23.05-0.9c-7.39,0-19.94,10.52-24.19,17.17c-5.17-2.95-10.34-7.57-26.78,2.22
				c-16.43,9.79-37.11,1.11-56.32-14.59c-19.2-15.7-39.7-42.28-39.7-42.28l24,17.73l-30.83-30.84l28.61,22.9l-5.72-8.68l16.62,13.85
				l-24-31.76l13.48,11.08l-3.69-6.09c0,0,6.09,4.43,8.49,5.91c2.4,1.48,4.43,0.18,7.94-0.74c3.51-0.92,4.99,3.69,9.6,6.65
				c4.62,2.95,17.55,4.43,17.55,4.43s-12.01,2.03-12.01,5.17c0,3.14,3.69,2.95,12.74,2.4c-7.2,8.68,18.65,7.94,18.65,7.94
				l-10.16,4.8c0,0,13.48,0.74,17.35,0.92c3.88,0.19,5.54,7.02,5.54,7.02s21.97,14.03,24.93,15.14c2.95,1.11,9.79-3.32,13.29-6.83
				c1.55-1.55,4.09-3.23,6.56-4.69c-2.31,0.3-5.88,1.24-9.33,4.13c-5.73,4.8-13.48,2.58-18.83-2.22
				c-3.92-3.52-27.53-21.77-39.9-31.3l4.45,3.61l-19.39-13.29l1.84,4.25l-47.26-31.02l21.05,19.2l-28.99-16.25l7.94,9.05
				l-18.65-10.34c0,0,10.16,14.22,7.02,15.14c-3.14,0.93-7.94-8.49-7.94-8.49l-1.11,4.43l-10.16-8.49c0,0,6.65,9.42,5.54,10.16
				c-1.11,0.74-6.83-1.29-6.83-1.29s22.71,22.9,21.23,23.08c-1.47,0.18-25.48-13.66-25.48-13.66s34.16,28.8,32.5,29.36
				c-1.66,0.56-19.2-8.12-19.2-8.12s41.36,31.76,39.52,32.13c-1.85,0.37-24.93-4.8-24.93-4.8l28.25,15.14l-33.6,0.74
				c0,0,37.3,7.02,35.64,7.57c-1.66,0.55-18.09-1.66-18.09-1.66s20.5,7.57,19.2,8.12c-1.29,0.55-30.83,1.11-30.83,1.11
				s32.36,7.32,51.69,3.16l-1.23-2.28C261.95,272.64,270.96,274.72,282.17,271.12"/>
			<path style="clip-path:url(#SVGID_00000170280357616471131940000000249969078780139949_);fill:#766E6C;" d="M257.59,228.15
				c0.73-7.39,4.81-11.28,7.2-12.96l-5.65-3.09C258.14,214.91,256.29,221.43,257.59,228.15"/>
			<g style="clip-path:url(#SVGID_00000170280357616471131940000000249969078780139949_);">
				<path class="st22" d="M257.59,228.15c-1.3-6.71,0.55-13.24,1.55-16.05l-3.32-1.82c0,0-9.23,17.91,3.13,32.31
					c0.49,0.56,0.99,1.08,1.51,1.59C257.84,237.58,257.18,232.31,257.59,228.15"/>
				<path class="st22" d="M302.16,236.87c-1.58-0.94-2.93-1.74-4.08-2.42c-0.93,3.14-3.63,10.61-9.26,14.99
					C294.78,247.14,299.78,242.81,302.16,236.87"/>
			</g>
			<g style="clip-path:url(#SVGID_00000170280357616471131940000000249969078780139949_);">
				<path class="st22" d="M458.37,239.57c-6.57-0.79-12.37-6.4-12.37-6.4s-0.01,0.01-3.59,2.67
					C444.52,237.82,451.48,243.42,458.37,239.57"/>
				<path class="st22" d="M478.32,211.57l-4.5,1.98c0.92,2.42,6.67,18.72,1.05,31.19C487.14,234.01,478.32,211.57,478.32,211.57"/>
			</g>
			<g id="White" style="clip-path:url(#SVGID_00000170280357616471131940000000249969078780139949_);">
				<path class="st23" d="M365.12,235.76c-21.23,1.66-36.7,27.47-40.44,33.28c0.46-0.98,0.92-1.99,1.34-3.01
					c-5.67,9.17-8.13,29.19-3.19,30.66c5.26,1.57,8.95-3.32,11.17-10.9c2.22-7.57-4.43-9.23-7.2-5.17
					c1.29-11.82,8.77-17.63,11.72-16.71c2.95,0.92,3.14,12.18,4.06,12.46c0.92,0.28,2.86-1.2,4.71-6.09
					c1.85-4.89,1.94-12.19,14.87-13.29c12.92-1.11,18.09,13.48,18.09,13.48v2.41c3.76,4.56,8.22,9.86,11.71,13.98l-0.44-2.73
					l0.44,2.73c2.6,3.08,4.65,5.48,5.45,6.43c-0.06-0.1-0.11-0.19-0.17-0.29c0,0,5.11,0.92,8.67,5.71
					c-1.9-10.85-3.33-21.38-7.37-34.51c-1.87-6.09-4.34-12.4-8.17-17.54c-1.68-1.62-2.72-2.77-2.72-2.77s1.04,1.15,2.72,2.77
					c-2.91-3.91-6.6-7.14-11.43-9.07c0.62,0.74,1.2,1.53,1.69,2.42c-0.49-0.89-1.07-1.68-1.69-2.42
					C375.11,236.05,370.56,235.33,365.12,235.76"/>
				<path class="st23" d="M298.08,234.45c-6.81-4.04-6.81-4.04-6.81-4.04s-7.57,15.33-20.5,9.05c-12.93-6.28-5.18-23.82-5.18-23.82
					l-0.81-0.45c-2.39,1.67-6.47,5.57-7.2,12.96c0.32,1.62,0.81,3.25,1.55,4.85c-0.74-1.59-1.24-3.22-1.55-4.85
					c-0.41,4.16,0.25,9.44,2.87,16.04c7.73,7.54,19.18,8.8,28.36,5.25C294.45,245.05,297.15,237.59,298.08,234.45"/>
				<path class="st23" d="M473.82,213.55l-6.4,2.82c0,0,7.39,15.33-1.48,21.42c-2.45,1.68-5.06,2.08-7.57,1.78
					c-6.89,3.85-13.85-1.76-15.97-3.73c-0.94,0.7-2.11,1.57-3.61,2.68c4.8,12,23.64,16.99,36.01,6.28c0.02-0.02,0.04-0.04,0.06-0.06
					C480.49,232.27,474.73,215.98,473.82,213.55"/>
			</g>
		</g>
	</g>
	<g id="Banner">
		<g>
			<polygon class="st24" points="87.6,591.02 633.23,591.02 633.23,590.53 595.84,544.77 633.23,500.05 633.23,499.62 87.6,499.62 
				87.6,500 125.27,544.12 87.6,590.51 			"/>
		</g>
		<path id="CSHS" d="M164.4,519.1h-4.14l-0.44-1.62h-3.06l-0.64,0.51v6.83l0.67,0.53h3.04l0.44-1.62h4.14v2.81
			c-1.04,0.89-2.11,1.75-3.15,2.61h-6.14l-3.57-2.97v-9.69l3.43-2.86h6.4l3.02,2.52V519.1z M181.26,525.35l-2.99-11.7h-8.95v3.39
			l1.44,0.44l-2.26,7.86l-1.71,0.44v3.37h6.65v-3.37l-1.08-0.44l0.38-1.37h3.34l0.4,1.37l-1.17,0.44v3.37h7.87v-3.37L181.26,525.35z
			 M174.34,517.84l1,3.48h-1.97L174.34,517.84z M198.38,516.18l-3.02-2.52h-6.4l-3.43,2.86v9.69l3.57,2.97h6.14
			c1.04-0.86,2.11-1.73,3.15-2.61v-2.81h-4.14l-0.44,1.62h-3.04l-0.66-0.53V518l0.64-0.51h3.06l0.44,1.62h4.14V516.18z
			 M215.93,520.06v-6.4h-15.42v6.4h3.28l0.44-2.82h1.71v8.11l-1.88,0.44v3.37h8.38v-3.37l-1.91-0.44v-8.11h1.7l0.44,2.82H215.93z
			 M233.59,517.04v-3.39h-7.16v3.39l1,0.44v7.36l-0.58,0.51h-2.57l-0.6-0.51v-7.36l1.02-0.44v-3.39h-7.29v3.39l1.69,0.44v9.26
			l2.92,2.41h6.99l2.9-2.41v-9.26L233.59,517.04z M248.44,516.18l-3.02-2.52h-6.78l-3.01,2.52v4.23l2.64,2.17l5.32,0.88l0.42,0.38
			v1.04l-0.55,0.47h-3.23l-0.44-1.62h-4.14v2.81l3.15,2.61h6.67l3.16-2.61v-4.43l-2.59-2.02l-5.34-0.89l-0.49-0.38v-0.91l0.58-0.44
			h3.08l0.44,1.62h4.14V516.18z M273.19,516.18l-3.01-2.52h-6.78l-3.01,2.52v4.23l2.64,2.17l5.32,0.88l0.42,0.38v1.04l-0.55,0.47
			h-3.23l-0.44-1.62h-4.14v2.81l3.14,2.61h6.67l3.17-2.61v-4.43l-2.59-2.02l-5.34-0.89l-0.49-0.38v-0.91l0.58-0.44h3.08l0.44,1.62
			h4.14V516.18z M292.29,517.04v-3.39h-7.29v3.39l1,0.44v2.5h-3.75v-2.5l1.02-0.44v-3.39h-7.29v3.39l1.68,0.44v7.87l-1.68,0.44v3.37
			h7.29v-3.37l-1.02-0.44v-2.7h3.75v2.7l-1,0.44v3.37h7.29v-3.37l-1.68-0.44v-7.87L292.29,517.04z M308.91,525.35l-3-11.7h-8.95
			v3.39l1.44,0.44l-2.26,7.86l-1.71,0.44v3.37h6.65v-3.37l-1.08-0.44l0.38-1.37h3.35l0.4,1.37l-1.17,0.44v3.37h7.87v-3.37
			L308.91,525.35z M301.99,517.84l1,3.48h-1.97L301.99,517.84z M327.56,525.84v-8.98l-3.88-3.21h-10.77v3.39l1.68,0.44v7.87
			l-1.68,0.44v3.37h10.66L327.56,525.84z M319.18,517.49h2.86l0.93,0.78v6.29l-0.98,0.8h-2.82V517.49z M339.92,529.16
			c1.13-0.91,2.24-1.86,3.37-2.77v-10.04l-3.23-2.7h-6.58l-3.24,2.7v10.04l3.35,2.77H339.92 M338.13,517.49l0.6,0.47v6.89
			l-0.62,0.51h-2.68l-0.62-0.51v-6.89l0.6-0.47H338.13z M370.26,517.04v-3.39h-5.96v3.39l0.93,0.44l-1.71,6.76l-1.91-6.76l1.09-0.44
			v-3.39h-8v3.39l1.04,0.44l-1.84,6.76l-1.82-6.76l1.02-0.44v-3.39h-7.44v3.39l1.35,0.44l2.99,11.68h6.14l1.93-6.85l1.84,6.85h5.78
			l3.19-11.68L370.26,517.04z M385.39,516.18l-3.02-2.52h-6.78l-3.01,2.52v4.23l2.64,2.17l5.32,0.88l0.42,0.38v1.04l-0.55,0.47
			h-3.23l-0.44-1.62h-4.14v2.81l3.14,2.61h6.67l3.17-2.61v-4.43l-2.59-2.02l-5.34-0.89l-0.49-0.38v-0.91l0.58-0.44h3.08l0.44,1.62
			h4.14V516.18z M413.73,517.04v-3.39h-7.29v3.39l1,0.44v2.5h-3.74v-2.5l1.02-0.44v-3.39h-7.29v3.39l1.68,0.44v7.87l-1.68,0.44v3.37
			h7.29v-3.37l-1.02-0.44v-2.7h3.74v2.7l-1,0.44v3.37h7.29v-3.37l-1.68-0.44v-7.87L413.73,517.04z M424.92,517.04v-3.39h-7.93v3.39
			l1.68,0.44v7.87l-1.68,0.44v3.37h7.93v-3.37l-1.68-0.44v-7.87L424.92,517.04z M441.23,519.1v-2.93l-3.04-2.52h-6.58l-3.43,2.86
			v9.69l3.57,2.97h4.1l1.46-1.22l0.44,1.22h3.48v-9.17h-6.65v2.66h2.08v2.13l-0.68,0.58h-2.57l-0.67-0.53V518l0.64-0.51h3.28
			l0.44,1.62H441.23z M460.15,517.04v-3.39h-7.29v3.39l1,0.44v2.5h-3.75v-2.5l1.02-0.44v-3.39h-7.29v3.39l1.69,0.44v7.87l-1.69,0.44
			v3.37h7.29v-3.37l-1.02-0.44v-2.7h3.75v2.7l-1,0.44v3.37h7.29v-3.37l-1.69-0.44v-7.87L460.15,517.04z M484.83,516.18l-3.02-2.52
			h-6.78l-3.01,2.52v4.23l2.64,2.17l5.32,0.88l0.42,0.38v1.04l-0.55,0.47h-3.24l-0.44-1.62h-4.14v2.81l3.15,2.61h6.67l3.17-2.61
			v-4.43l-2.59-2.02l-5.34-0.89l-0.49-0.38v-0.91l0.58-0.44h3.08l0.44,1.62h4.14V516.18z M500.48,516.18l-3.02-2.52h-6.4l-3.43,2.86
			v9.69l3.57,2.97h6.13c1.04-0.86,2.11-1.73,3.15-2.61v-2.81h-4.14l-0.44,1.62h-3.04l-0.66-0.53V518l0.64-0.51h3.06l0.44,1.62h4.14
			V516.18z M519.49,517.04v-3.39h-7.29v3.39l1,0.44v2.5h-3.75v-2.5l1.02-0.44v-3.39h-7.29v3.39l1.68,0.44v7.87l-1.68,0.44v3.37h7.29
			v-3.37l-1.02-0.44v-2.7h3.75v2.7l-1,0.44v3.37h7.29v-3.37l-1.69-0.44v-7.87L519.49,517.04z M531.9,529.16
			c1.13-0.91,2.24-1.86,3.37-2.77v-10.04l-3.23-2.7h-6.58l-3.24,2.7v10.04l3.35,2.77H531.9 M530.1,517.49l0.6,0.47v6.89l-0.62,0.51
			h-2.68l-0.62-0.51v-6.89l0.6-0.47H530.1z M547.63,529.16c1.13-0.91,2.24-1.86,3.37-2.77v-10.04l-3.24-2.7h-6.58l-3.23,2.7v10.04
			l3.35,2.77H547.63 M545.83,517.49l0.6,0.47v6.89l-0.62,0.51h-2.68l-0.62-0.51v-6.89l0.59-0.47H545.83z M561.83,517.04v-3.39h-8.16
			v3.39l1.68,0.44v7.87l-1.68,0.44v3.37h13.67v-5.92h-3.28l-0.44,2.11h-3.68v-7.87L561.83,517.04z"/>
		<path id="Falcons_MTB" d="M153.7,575.14h-12.19v-38.31h12.74v17.54h11.36v7.11h-11.73L153.7,575.14z M156.66,544.12h6.65v5.17
			h13.01v-12.56h-19.66V544.12z M196.63,553.72l-5.26-14.77l-13.67,36.28h11.91L196.63,553.72z M208.18,575.05h11.72l-14.49-38.04
			h-12.56l10.8,27.05h-7.39l-3.14,7.94h13.11L208.18,575.05z M285.63,562.98v5.4h-8.79v6.58h13.78l6.85-6.65v-5.19L285.63,562.98z
			 M297.41,544.42l-6.44-7.55h-14.4V544h9v7.82h12.05L297.41,544.42z M269.15,537.57l-6.99,7.06v23.06l7.27,7.27h4.92v-37.39H269.15
			z M328.7,543.87v24.51h-4.71v6.44h9.97l6.72-6.51v-23.82l-6.86-7.27h-9.83v6.58L328.7,543.87z M320.62,543.8v-6.58h-9.83
			l-6.85,7.27v23.82l6.72,6.51h9.97v-6.44h-4.71v-24.51L320.62,543.8z M358.66,558.62l-10.9-17.63l0.65,34.25h10.43L358.66,558.62z
			 M361.15,537.01h-12.83l23.45,38.13h12.46L361.15,537.01z M384.97,536.92H373.8v16.9l10.89,17.26L384.97,536.92z M403.83,569.21
			v-4.99h-12.19v3.81l5.88,7.48h16.27v-6.44L403.83,569.21z M421.9,574.96l7.06-7.27v-9.35l-7.2-7.62h-18.49v-13.78h-4.36l-6.79,7.2
			v9.35l7.48,7.13h17.1v14.47L421.9,574.96z M428.34,543.59l-6.78-6.93h-15.09v6.37h10.39v3.95h11.42L428.34,543.59z M498.35,536.55
			h-12.37v38.5h12.47L498.35,536.55z M483.21,559.91v-19.02L475.27,554l-10.34-17.26h-13.57l23.08,38.31L483.21,559.91z
			 M462.99,560.28l-11.73-18.83v34.16h11.82L462.99,560.28z M568.08,543.8v9.35h-10.11v6.23h9.69v8.93h-9.49v6.78h14.89l6.93-6.72
			v-8.59l-3.6-3.74l3.46-3.04v-8.8l-6.51-7.34H558.1v6.99L568.08,543.8z M555.54,537.22h-12.33v38.08h12.33V537.22z M537.21,536.74
			h-33.23v8.21h33.23V536.74z M527.24,547.44H514.6v27.88h12.65V547.44z M237.53,537.19h-12.65v37.76h12.65V537.19z M257.66,563.51
			h-11.17v4.52h-6.55v7.11h17.63L257.66,563.51z"/>
	</g>
</g>
<g id="On_White__x28_Camera_Ready_x29_">
	<g id="Falcon_Face_-_Above_Chain_copy">
	</g>
</g>
<g id="On_Black__x28_Camera_Ready_x29_">
	<g id="Falcon_Face_-_Below_Chain_copy_2">
	</g>
	<g id="Chain_copy">
	</g>
	<g id="Falcon_Face_-_Above_Chain_copy_2">
	</g>
</g>
</svg>
